# Blender v3.0.1 OBJ File: 'aspa1.blend'
# www.blender.org
mtllib aspa.mtl
o G_Propeller_Malla.013
v 0.012625 0.181140 0.000611
v 0.012625 0.181140 0.065135
v 0.002280 0.062898 0.059153
v 0.002280 0.062898 0.006593
v -0.023484 0.065152 0.059153
v -0.013139 0.183394 0.065135
v -0.013139 0.183394 0.000611
v -0.023484 0.065152 0.006593
v 0.017623 0.238263 0.056607
v 0.017623 0.238263 0.009139
v -0.008142 0.240517 0.009139
v -0.008142 0.240517 0.056607
v -0.107207 0.026312 0.051919
v -0.106034 0.039728 0.046341
v -0.115776 0.027061 0.032873
v -0.048197 0.021149 -0.030340
v -0.044301 0.065678 -0.011826
v 0.003072 0.061533 -0.011826
v -0.000824 0.017004 -0.030340
v -0.042688 0.084122 0.032873
v 0.004686 0.079977 0.032873
v -0.044301 0.065678 0.077572
v 0.003072 0.061533 0.077572
v -0.048197 0.021149 0.096087
v -0.000824 0.017004 0.096087
v -0.052093 -0.023380 0.077572
v -0.004720 -0.027524 0.077572
v -0.053707 -0.041824 0.032873
v -0.006333 -0.045969 0.032873
v -0.052093 -0.023380 -0.011826
v -0.004720 -0.027524 -0.011826
v -0.088391 0.024666 -0.004599
v -0.086082 0.051062 0.006376
v -0.090700 -0.001731 0.006376
v -0.091657 -0.012664 0.032873
v -0.090700 -0.001731 0.059370
v -0.088391 0.024666 0.070346
v -0.086082 0.051062 0.059370
v -0.085125 0.061996 0.032873
v -0.107207 0.026312 0.013827
v -0.106034 0.039728 0.019406
v -0.108381 0.012896 0.019406
v -0.108867 0.007338 0.032873
v -0.108381 0.012896 0.046341
v -0.105547 0.045285 0.032873
v 0.001762 0.046563 0.003202
v -0.000824 0.017004 -0.009089
v 0.002833 0.058807 0.032873
v 0.001762 0.046563 0.062545
v -0.000824 0.017004 0.074835
v -0.003410 -0.012554 0.062545
v -0.004481 -0.024798 0.032873
v -0.003410 -0.012554 0.003202
v 0.071289 0.040480 0.003202
v 0.068703 0.010922 -0.009089
v 0.072360 0.052724 0.032873
v 0.071289 0.040480 0.062545
v 0.068703 0.010922 0.074835
v 0.066117 -0.018637 0.062545
v 0.065046 -0.030881 0.032873
v 0.066117 -0.018637 0.003202
v -0.011340 -0.092778 -0.093616
v -0.006469 -0.037111 -0.125878
v -0.001749 0.016849 -0.020095
v -0.005716 -0.028496 0.006186
v -0.027513 0.019103 -0.020095
v -0.032234 -0.034857 -0.125878
v -0.037104 -0.090524 -0.093616
v -0.031480 -0.026242 0.006186
v -0.009612 -0.073030 -0.171272
v -0.013195 -0.113982 -0.147538
v -0.038959 -0.111728 -0.147538
v -0.035376 -0.070776 -0.171272
v -0.006470 -0.037111 0.191624
v -0.011340 -0.092778 0.159362
v -0.005716 -0.028496 0.059561
v -0.001749 0.016849 0.085841
v -0.031480 -0.026242 0.059561
v -0.037104 -0.090524 0.159362
v -0.032234 -0.034857 0.191624
v -0.027513 0.019103 0.085841
v -0.013195 -0.113982 0.213284
v -0.009612 -0.073030 0.237019
v -0.035377 -0.070776 0.237019
v -0.038959 -0.111728 0.213284
vt 0.941412 0.584584
vt 0.941412 0.584584
vt 0.935113 0.499146
vt 0.935113 0.499146
vt 0.931869 0.501220
vt 0.938167 0.586657
vt 0.938167 0.586657
vt 0.931869 0.501220
vt 0.944454 0.625858
vt 0.944454 0.625858
vt 0.941210 0.627931
vt 0.941210 0.627931
vt 0.919390 0.474531
vt 0.920105 0.484225
vt 0.918311 0.475221
vt 0.926821 0.469783
vt 0.929193 0.501957
vt 0.935159 0.498145
vt 0.932787 0.465970
vt 0.930176 0.515284
vt 0.936141 0.511472
vt 0.929193 0.501957
vt 0.935159 0.498145
vt 0.926821 0.469783
vt 0.932787 0.465970
vt 0.924449 0.437608
vt 0.930415 0.433796
vt 0.923467 0.424281
vt 0.929432 0.420468
vt 0.924449 0.437608
vt 0.930415 0.433796
vt 0.921760 0.473017
vt 0.923166 0.492090
vt 0.920354 0.453944
vt 0.919771 0.446044
vt 0.920354 0.453944
vt 0.921760 0.473017
vt 0.923166 0.492090
vt 0.923748 0.499990
vt 0.919390 0.474531
vt 0.920105 0.484225
vt 0.918676 0.464837
vt 0.918380 0.460822
vt 0.918676 0.464837
vt 0.920401 0.488241
vt 0.934361 0.487328
vt 0.932787 0.465970
vt 0.935013 0.496175
vt 0.934361 0.487328
vt 0.932787 0.465970
vt 0.931212 0.444612
vt 0.930560 0.435766
vt 0.931212 0.444612
vt 0.943116 0.481733
vt 0.941542 0.460375
vt 0.943769 0.490579
vt 0.943116 0.481733
vt 0.941542 0.460375
vt 0.939967 0.439017
vt 0.939315 0.430170
vt 0.939967 0.439017
vt 0.926821 0.386661
vt 0.929786 0.426884
vt 0.932660 0.465874
vt 0.930245 0.433109
vt 0.929416 0.467947
vt 0.926542 0.428957
vt 0.923576 0.388734
vt 0.927001 0.435182
vt 0.927873 0.400931
vt 0.925691 0.371340
vt 0.922447 0.373413
vt 0.924628 0.403004
vt 0.929786 0.426884
vt 0.926821 0.386661
vt 0.930245 0.433109
vt 0.932660 0.465874
vt 0.927001 0.435182
vt 0.923576 0.388735
vt 0.926542 0.428957
vt 0.929416 0.467947
vt 0.925691 0.371340
vt 0.927873 0.400931
vt 0.924628 0.403004
vt 0.922447 0.373414
vn 0.9962 -0.0872 0.0000
vn -0.9962 0.0872 0.0000
vn -0.0044 -0.0501 0.9987
vn 0.0872 0.9962 0.0000
vn 0.0128 0.1465 -0.9891
vn -0.9962 0.0871 0.0000
vn 0.0128 0.1465 0.9891
vn -0.0044 -0.0501 -0.9987
vn -0.8804 0.2457 0.4057
vn 0.0334 0.3812 -0.9239
vn 0.0805 0.9204 -0.3827
vn 0.0805 0.9204 0.3827
vn 0.0334 0.3812 0.9239
vn -0.0334 -0.3812 0.9239
vn -0.0805 -0.9204 0.3827
vn -0.0805 -0.9204 -0.3827
vn -0.0334 -0.3812 -0.9239
vn -0.4771 0.3727 -0.7959
vn -0.5346 -0.2841 -0.7959
vn -0.5752 -0.7486 -0.3297
vn -0.5752 -0.7486 0.3297
vn -0.5346 -0.2842 0.7959
vn -0.4771 0.3727 0.7959
vn -0.4365 0.8371 0.3297
vn -0.4365 0.8371 -0.3297
vn -0.6422 0.3415 -0.6863
vn -0.6917 -0.2248 -0.6863
vn -0.7268 -0.6253 -0.2843
vn -0.7268 -0.6253 0.2843
vn -0.6917 -0.2248 0.6863
vn -0.6422 0.3415 0.6863
vn -0.6071 0.7420 0.2842
vn -0.6072 0.7420 -0.2842
vn -0.9096 -0.0891 0.4057
vn -0.8803 0.2457 -0.4057
vn -0.9303 -0.3259 -0.1681
vn 0.0776 0.8867 -0.4558
vn -0.0436 -0.4981 -0.8660
vn -0.0811 -0.9266 0.3672
vn 0.0682 0.7801 -0.6220
vn -0.0732 -0.8366 0.5430
vn -0.0732 -0.8366 -0.5430
vn -0.0436 -0.4981 0.8660
vn 0.0682 0.7801 0.6220
vn -0.0811 -0.9266 -0.3672
vn 0.0776 0.8867 0.4558
vn -0.8596 0.4825 0.1680
vn -0.9303 -0.3259 0.1681
vn -0.9096 -0.0891 -0.4057
vn -0.8596 0.4825 -0.1680
usemtl MAT_Base
s 1
f 1/1/1 2/2/1 3/3/1 4/4/1
f 5/5/2 6/6/2 7/7/2 8/8/2
f 2/2/3 6/6/3 5/5/3 3/3/3
f 9/9/4 10/10/4 11/11/4 12/12/4
f 1/1/5 7/7/5 11/11/5 10/10/5
f 10/10/1 9/9/1 2/2/1 1/1/1
f 12/12/6 11/11/6 7/7/2 6/6/2
f 9/9/7 12/12/7 6/6/7 2/2/7
f 4/4/8 8/8/8 7/7/8 1/1/8
f 13/13/9 14/14/9 15/15/9
f 16/16/10 17/17/10 18/18/10 19/19/10
f 17/17/11 20/20/11 21/21/11 18/18/11
f 20/20/12 22/22/12 23/23/12 21/21/12
f 22/22/13 24/24/13 25/25/13 23/23/13
f 24/24/14 26/26/14 27/27/14 25/25/14
f 26/26/15 28/28/15 29/29/15 27/27/15
f 28/28/16 30/30/16 31/31/16 29/29/16
f 30/30/17 16/16/17 19/19/17 31/31/17
f 17/17/18 16/16/18 32/32/18 33/33/18
f 16/16/19 30/30/19 34/34/19 32/32/19
f 30/30/20 28/28/20 35/35/20 34/34/20
f 28/28/21 26/26/21 36/36/21 35/35/21
f 26/26/22 24/24/22 37/37/22 36/36/22
f 24/24/23 22/22/23 38/38/23 37/37/23
f 22/22/24 20/20/24 39/39/24 38/38/24
f 20/20/25 17/17/25 33/33/25 39/39/25
f 33/33/26 32/32/26 40/40/26 41/41/26
f 32/32/27 34/34/27 42/42/27 40/40/27
f 34/34/28 35/35/28 43/43/28 42/42/28
f 35/35/29 36/36/29 44/44/29 43/43/29
f 36/36/30 37/37/30 13/13/30 44/44/30
f 37/37/31 38/38/31 14/14/31 13/13/31
f 38/38/32 39/39/32 45/45/32 14/14/32
f 39/39/33 33/33/33 41/41/33 45/45/33
f 44/44/34 13/13/34 15/15/34
f 41/41/35 40/40/35 15/15/35
f 15/15/36 42/42/36 43/43/36
f 19/19/1 18/18/1 46/46/1 47/47/1
f 18/18/1 21/21/1 48/48/1 46/46/1
f 21/21/1 23/23/1 49/49/1 48/48/1
f 23/23/1 25/25/1 50/50/1 49/49/1
f 25/25/1 27/27/1 51/51/1 50/50/1
f 27/27/1 29/29/1 52/52/1 51/51/1
f 29/29/1 31/31/1 53/53/1 52/52/1
f 31/31/1 19/19/1 47/47/1 53/53/1
f 47/47/10 46/46/10 54/54/10 55/55/10
f 46/46/11 48/48/11 56/56/11 54/54/11
f 48/48/12 49/49/12 57/57/12 56/56/12
f 49/49/13 50/50/13 58/58/13 57/57/13
f 50/50/14 51/51/14 59/59/14 58/58/14
f 51/51/15 52/52/15 60/60/15 59/59/15
f 52/52/16 53/53/16 61/61/16 60/60/16
f 53/53/17 47/47/17 55/55/17 61/61/17
f 62/62/1 63/63/1 64/64/1 65/65/1
f 66/66/2 67/67/2 68/68/2 69/69/2
f 63/63/37 67/67/37 66/66/37 64/64/37
f 70/70/38 71/71/38 72/72/38 73/73/38
f 62/62/39 68/68/39 72/72/39 71/71/39
f 71/71/1 70/70/1 63/63/1 62/62/1
f 73/73/2 72/72/2 68/68/2 67/67/2
f 70/70/40 73/73/40 67/67/40 63/63/40
f 65/65/41 69/69/41 68/68/41 62/62/41
f 74/74/1 75/75/1 76/76/1 77/77/1
f 78/78/2 79/79/2 80/80/2 81/81/2
f 75/75/42 79/79/42 78/78/42 76/76/42
f 82/82/43 83/83/43 84/84/43 85/85/43
f 74/74/44 80/80/44 84/84/44 83/83/44
f 83/83/1 82/82/1 75/75/1 74/74/1
f 85/85/6 84/84/6 80/80/2 79/79/2
f 82/82/45 85/85/45 79/79/45 75/75/45
f 77/77/46 81/81/46 80/80/46 74/74/46
f 14/14/47 45/45/47 15/15/47
f 15/15/48 43/43/48 44/44/48
f 15/15/49 40/40/49 42/42/49
f 15/15/50 45/45/50 41/41/50
