# 3ds Max Wavefront OBJ Exporter v0.99 - (c)2007 guruware
# File Created: 20.05.2024 22:03:21

mtllib bimo_bi.mtl

#
# object brazoizquierdo
#

v  0.1030 -0.0483 -0.1239
v  0.2530 -0.1136 -0.1239
v  0.2201 -0.1638 -0.1400
v  0.0907 -0.1071 -0.1400
v  0.0352 -0.0053 -0.0800
v  0.2004 -0.0769 -0.0800
v  0.1763 -0.1136 -0.1239
v  0.0262 -0.0483 -0.1239
v  0.0385 0.0104 -0.0200
v  0.2092 -0.0634 -0.0200
v  0.0352 -0.0053 0.0400
v  0.2004 -0.0769 0.0400
v  0.0262 -0.0483 0.0839
v  0.1763 -0.1136 0.0839
v  0.0139 -0.1071 0.1000
v  0.1434 -0.1638 0.1000
v  0.0784 -0.1658 0.0839
v  0.1872 -0.2140 0.0839
v  0.2201 -0.1638 0.1000
v  0.0907 -0.1071 0.1000
v  0.0694 -0.2088 0.0400
v  0.1632 -0.2507 0.0400
v  0.0661 -0.2245 -0.0200
v  0.1543 -0.2641 -0.0200
v  0.0694 -0.2088 -0.0800
v  0.1632 -0.2507 -0.0800
v  0.0784 -0.1658 -0.1239
v  0.1872 -0.2140 -0.1239
v  0.3031 -0.2305 -0.1239
v  0.2577 -0.2698 -0.1400
v  0.1434 -0.1638 -0.1400
v  0.3364 -0.2018 -0.0800
v  0.3485 -0.1913 -0.0200
v  0.3364 -0.2018 0.0400
v  0.3031 -0.2305 0.0839
v  0.2577 -0.2698 0.1000
v  0.1105 -0.2140 0.0839
v  0.2123 -0.3090 0.0839
v  0.0864 -0.2507 0.0400
v  0.1790 -0.3377 0.0400
v  0.0776 -0.2641 -0.0200
v  0.1669 -0.3482 -0.0200
v  0.2558 -0.3377 -0.0800
v  0.2436 -0.3482 -0.0200
v  0.1105 -0.2140 -0.1239
v  0.2123 -0.3090 -0.1239
v  0.1790 -0.3377 -0.0800
v  0.0864 -0.2507 -0.0800
v  0.4090 -0.3845 -0.1239
v  0.3572 -0.4147 -0.1400
v  0.4469 -0.3624 -0.0800
v  0.4608 -0.3543 -0.0200
v  0.4469 -0.3624 0.0400
v  0.4090 -0.3845 0.0839
v  0.3572 -0.4147 0.1000
v  0.3053 -0.4450 0.0839
v  0.2674 -0.4671 0.0400
v  0.2535 -0.4752 -0.0200
v  0.2674 -0.4671 -0.0800
v  0.3053 -0.4450 -0.1239
v  0.4972 -0.5649 -0.1239
v  0.4419 -0.5884 -0.1400
v  0.5376 -0.5476 -0.0800
v  0.5524 -0.5413 -0.0200
v  0.5376 -0.5476 0.0400
v  0.4972 -0.5649 0.0839
v  0.4419 -0.5884 0.1000
v  0.3865 -0.6120 0.0839
v  0.3458 -0.6292 0.0400
v  0.3309 -0.6355 -0.0200
v  0.3458 -0.6292 -0.0800
v  0.3865 -0.6120 -0.1239
v  0.5600 -0.7621 -0.1239
v  0.5025 -0.7806 -0.1400
v  0.6019 -0.7485 -0.0800
v  0.6170 -0.7435 -0.0200
v  0.6019 -0.7485 0.0400
v  0.5600 -0.7621 0.0839
v  0.5025 -0.7806 0.1000
v  0.4445 -0.7991 0.0839
v  0.4020 -0.8126 0.0400
v  0.3861 -0.8176 -0.0200
v  0.4020 -0.8126 -0.0800
v  0.4445 -0.7991 -0.1239
v  0.6025 -0.9664 -0.1239
v  0.5441 -0.9809 -0.1400
v  0.6450 -0.9558 -0.0800
v  0.6603 -0.9519 -0.0200
v  0.6450 -0.9558 0.0400
v  0.6025 -0.9664 0.0839
v  0.5441 -0.9809 0.1000
v  0.4850 -0.9954 0.0839
v  0.4416 -1.0060 0.0400
v  0.4254 -1.0098 -0.0200
v  0.4416 -1.0060 -0.0800
v  0.4850 -0.9954 -0.1239
v  0.6129 -1.1681 -0.1239
v  0.5624 -1.1791 -0.1400
v  0.6503 -1.1600 -0.0800
v  0.6637 -1.1571 -0.0200
v  0.6503 -1.1600 0.0400
v  0.6129 -1.1681 0.0839
v  0.5624 -1.1791 0.1000
v  0.5096 -1.1901 0.0839
v  0.4712 -1.1981 0.0400
v  0.4568 -1.2011 -0.0200
v  0.4712 -1.1981 -0.0800
v  0.5096 -1.1901 -0.1239
v  0.6000 -1.3572 -0.1239
v  0.5620 -1.3649 -0.1400
v  0.6265 -1.3516 -0.0800
v  0.6360 -1.3496 -0.0200
v  0.6265 -1.3516 0.0400
v  0.6000 -1.3572 0.0839
v  0.5620 -1.3649 0.1000
v  0.5222 -1.3726 0.0839
v  0.4918 -1.3782 0.0400
v  0.4805 -1.3802 -0.0200
v  0.4918 -1.3782 -0.0800
v  0.5222 -1.3726 -0.1239
v  0.5595 -1.4428 -0.1241
v  0.5290 -1.4495 -0.1102
v  0.6165 -1.4295 -0.0200
v  0.6092 -1.4313 -0.0720
v  0.5060 -1.4543 -0.0720
v  0.4975 -1.4561 -0.0200
v  0.5887 -1.4362 0.0702
v  0.6092 -1.4313 0.0321
v  0.5290 -1.4495 0.0702
v  0.5595 -1.4428 0.0841
v  0.5887 -1.4362 -0.1102
v  0.5060 -1.4543 0.0321
v  0.5350 -1.4891 0.0515
v  0.5577 -1.4838 0.0626
v  0.5956 -1.4747 0.0213
v  0.6013 -1.4733 -0.0200
v  0.5350 -1.4891 -0.0915
v  0.5179 -1.4930 -0.0613
v  0.5798 -1.4786 -0.0915
v  0.5577 -1.4838 -0.1026
v  0.5179 -1.4930 0.0213
v  0.5798 -1.4786 0.0515
v  0.5956 -1.4747 -0.0613
v  0.5117 -1.4944 -0.0200
v  0.5447 -1.5122 -0.0369
v  0.5423 -1.5128 -0.0200
v  0.5512 -1.5106 0.0093
v  0.5602 -1.5084 0.0138
v  0.5757 -1.5047 -0.0031
v  0.5781 -1.5041 -0.0200
v  0.5512 -1.5106 -0.0492
v  0.5691 -1.5063 -0.0492
v  0.5602 -1.5084 -0.0538
v  0.5447 -1.5122 -0.0031
v  0.5691 -1.5063 0.0093
v  0.5757 -1.5047 -0.0369
# 156 vertices

vn 0.2117 0.4873 -0.8472
vn 0.2836 0.4359 -0.8541
vn 0.0147 0.0232 -0.9996
vn 0.0135 0.0319 -0.9994
vn 0.3489 0.8053 -0.4794
vn 0.4752 0.7318 -0.4885
vn 0.2836 0.4359 -0.8542
vn 0.2117 0.4872 -0.8472
vn 0.3972 0.9177 -0.0000
vn 0.5445 0.8388 -0.0000
vn 0.3489 0.8052 0.4794
vn 0.4752 0.7318 0.4885
vn 0.5444 0.8388 -0.0000
vn 0.2117 0.4873 0.8472
vn 0.2836 0.4359 0.8541
vn 0.3489 0.8053 0.4794
vn 0.0135 0.0319 0.9994
vn 0.0147 0.0233 0.9996
vn 0.2836 0.4359 0.8542
vn -0.1945 -0.4388 0.8773
vn -0.2639 -0.3995 0.8779
vn 0.0147 0.0232 0.9996
vn -0.3510 -0.7861 0.5088
vn -0.4755 -0.7152 0.5122
vn -0.4089 -0.9126 -0.0000
vn -0.5547 -0.8320 -0.0000
vn -0.3510 -0.7861 -0.5088
vn -0.4755 -0.7152 -0.5122
vn -0.5548 -0.8320 -0.0000
vn -0.1945 -0.4387 -0.8773
vn -0.2639 -0.3995 -0.8779
vn -0.1945 -0.4388 -0.8773
vn 0.3881 0.3368 -0.8579
vn 0.0136 0.0122 -0.9998
vn 0.4753 0.7318 -0.4885
vn 0.6573 0.5710 -0.4919
vn 0.7547 0.6560 -0.0000
vn 0.6573 0.5710 0.4919
vn 0.3881 0.3367 0.8579
vn 0.0148 0.0233 0.9996
vn 0.0137 0.0121 0.9998
vn 0.3882 0.3367 0.8579
vn -0.3691 -0.3171 0.8736
vn 0.0136 0.0121 0.9998
vn -0.6545 -0.5605 0.5075
vn -0.7600 -0.6499 -0.0000
vn -0.6545 -0.5605 0.5074
vn -0.4755 -0.7153 -0.5122
vn -0.6545 -0.5605 -0.5074
vn -0.2640 -0.3995 -0.8779
vn -0.3691 -0.3171 -0.8736
vn 0.3882 0.3367 -0.8579
vn 0.4396 0.2568 -0.8607
vn 0.0105 0.0063 -0.9999
vn 0.0136 0.0121 -0.9998
vn 0.6572 0.5710 -0.4919
vn 0.7502 0.4387 -0.4947
vn 0.4395 0.2568 -0.8607
vn 0.3882 0.3368 -0.8578
vn 0.8632 0.5049 -0.0000
vn 0.7502 0.4387 0.4946
vn 0.4395 0.2568 0.8607
vn 0.7502 0.4387 0.4947
vn 0.0104 0.0063 0.9999
vn 0.3881 0.3368 0.8579
vn -0.4242 -0.2463 0.8714
vn 0.0137 0.0122 0.9998
vn -0.7465 -0.4324 0.5058
vn -0.4243 -0.2463 0.8714
vn -0.8656 -0.5008 -0.0000
vn -0.7465 -0.4324 -0.5058
vn -0.3690 -0.3171 -0.8736
vn -0.4242 -0.2463 -0.8714
vn -0.7465 -0.4323 -0.5058
vn 0.0104 0.0063 -0.9999
vn 0.4718 0.1892 -0.8612
vn 0.0115 0.0046 -0.9999
vn 0.8062 0.3242 -0.4949
vn 0.9277 0.3733 -0.0000
vn 0.8062 0.3242 0.4949
vn 0.4718 0.1892 0.8612
vn 0.0115 0.0046 0.9999
vn -0.4541 -0.1795 0.8727
vn 0.0116 0.0046 0.9999
vn 0.0104 0.0062 0.9999
vn -0.8015 -0.3144 0.5087
vn -0.8656 -0.5007 -0.0000
vn -0.9313 -0.3642 -0.0000
vn -0.8015 -0.3144 -0.5087
vn -0.9314 -0.3641 -0.0000
vn -0.4243 -0.2463 -0.8714
vn -0.4541 -0.1796 -0.8727
vn 0.0116 0.0047 -0.9999
vn -0.4541 -0.1795 -0.8727
vn 0.4896 0.1283 -0.8624
vn 0.0089 0.0021 -1.0000
vn 0.8404 0.2212 -0.4947
vn 0.9670 0.2549 -0.0000
vn 0.8404 0.2212 0.4948
vn 0.4896 0.1283 0.8624
vn 0.0089 0.0021 1.0000
vn -0.4747 -0.1223 0.8716
vn 0.0089 0.0022 1.0000
vn 0.0116 0.0047 0.9999
vn -0.8342 -0.2124 0.5089
vn -0.9693 -0.2458 -0.0000
vn -0.8341 -0.2125 0.5090
vn -0.8341 -0.2125 -0.5090
vn -0.4747 -0.1223 -0.8716
vn -0.8342 -0.2124 -0.5089
vn 0.0116 0.0046 -0.9999
vn 0.5188 0.0638 -0.8525
vn 0.0131 -0.0017 -0.9999
vn 0.8404 0.2212 -0.4948
vn 0.8720 0.1024 -0.4787
vn 0.9934 0.1148 -0.0000
vn 0.8404 0.2212 0.4947
vn 0.8720 0.1024 0.4787
vn 0.5188 0.0637 0.8525
vn 0.0088 0.0021 1.0000
vn 0.0131 -0.0017 0.9999
vn 0.5188 0.0638 0.8525
vn 0.4896 0.1284 0.8625
vn -0.4939 -0.0829 0.8655
vn 0.0088 0.0022 1.0000
vn -0.8538 -0.1513 0.4981
vn -0.4747 -0.1222 0.8716
vn -0.9839 -0.1785 -0.0000
vn -0.8538 -0.1514 0.4981
vn -0.8342 -0.2125 -0.5089
vn -0.8538 -0.1513 -0.4981
vn -0.4939 -0.0829 -0.8655
vn -0.8538 -0.1514 -0.4981
vn 0.0088 0.0021 -1.0000
vn -0.4940 -0.0829 -0.8655
vn 0.5746 -0.0128 -0.8183
vn 0.0193 -0.0095 -0.9998
vn 0.9027 -0.0401 -0.4283
vn 0.5747 -0.0129 -0.8183
vn 0.9934 0.1147 -0.0000
vn 0.9986 -0.0533 -0.0000
vn 0.9027 -0.0401 0.4283
vn 0.5746 -0.0128 0.8183
vn 0.0194 -0.0095 0.9998
vn 0.5747 -0.0129 0.8183
vn -0.5408 -0.0547 0.8394
vn 0.0193 -0.0095 0.9998
vn -0.8816 -0.1140 0.4581
vn -0.5407 -0.0547 0.8394
vn -0.9902 -0.1397 -0.0000
vn -0.8815 -0.1140 0.4581
vn -0.8816 -0.1140 -0.4581
vn -0.9902 -0.1396 -0.0000
vn -0.5408 -0.0546 -0.8394
vn -0.8815 -0.1140 -0.4581
vn -0.5407 -0.0546 -0.8394
vn 0.5746 -0.0129 -0.8183
vn 0.6386 -0.1291 -0.7586
vn 0.0333 -0.1099 -0.9934
vn 0.9027 -0.0400 -0.4283
vn 0.9206 -0.1643 -0.3542
vn 0.6386 -0.1292 -0.7586
vn 0.9836 -0.1805 -0.0000
vn 0.9206 -0.1644 -0.3542
vn 0.9027 -0.0400 0.4283
vn 0.9206 -0.1643 0.3542
vn 0.6386 -0.1292 0.7586
vn 0.0333 -0.1099 0.9934
vn 0.5746 -0.0129 0.8183
vn -0.5872 -0.1206 0.8004
vn -0.9020 -0.1507 0.4047
vn -0.9861 -0.1664 -0.0000
vn -0.9020 -0.1507 -0.4047
vn -0.5408 -0.0547 -0.8394
vn -0.5872 -0.1206 -0.8004
vn -0.9020 -0.1507 -0.4046
vn 0.0655 -0.3327 -0.9408
vn -0.5826 -0.3114 -0.7508
vn 0.9606 -0.2778 -0.0000
vn 0.9135 -0.2841 -0.2912
vn -0.8885 -0.2821 -0.3619
vn -0.9612 -0.2759 -0.0000
vn 0.9206 -0.1644 0.3542
vn 0.6386 -0.1291 0.7586
vn 0.6745 -0.3083 0.6708
vn 0.9135 -0.2841 0.2912
vn -0.5826 -0.3114 0.7508
vn 0.0655 -0.3327 0.9408
vn 0.6745 -0.3083 -0.6708
vn -0.8885 -0.2822 0.3618
vn -0.4268 -0.6820 0.5939
vn 0.1176 -0.6655 0.7371
vn 0.8359 -0.4949 0.2372
vn 0.8864 -0.4629 -0.0003
vn -0.4268 -0.6820 -0.5939
vn -0.7043 -0.6452 -0.2960
vn 0.6270 -0.5802 -0.5198
vn 0.1176 -0.6655 -0.7371
vn -0.7044 -0.6451 0.2960
vn 0.6270 -0.5802 0.5198
vn 0.8359 -0.4949 -0.2373
vn -0.7808 -0.6247 -0.0000
vn -0.1545 -0.9821 -0.1081
vn -0.1833 -0.9831 0.0001
vn -0.0389 -0.9733 0.2264
vn 0.2155 -0.9318 0.2920
vn 0.5496 -0.8300 0.0950
vn 0.5723 -0.8200 0.0004
vn -0.0389 -0.9733 -0.2264
vn 0.4536 -0.8667 -0.2077
vn 0.2155 -0.9318 -0.2920
vn -0.1545 -0.9820 0.1082
vn 0.4539 -0.8665 0.2079
vn 0.5495 -0.8300 -0.0951
# 214 vertex normals

vt 0.4793 -0.1277 0.0000
vt 0.6770 -0.1277 0.0000
vt 0.6770 -0.3254 0.0000
vt 0.4793 -0.3254 0.0000
vt 0.8437 -0.9709 0.0000
vt 0.8237 -0.9534 0.0000
vt 0.8614 -0.9304 0.0000
vt 0.8781 -0.9397 0.0000
vt 0.7991 -0.9036 0.0000
vt 0.7967 -0.8676 0.0000
vt 0.8420 -0.8696 0.0000
vt 0.8435 -0.8969 0.0000
vt 0.8993 -0.8521 0.0000
vt 0.9020 -0.8161 0.0000
vt 0.9448 -0.8248 0.0000
vt 0.9422 -0.8524 0.0000
vt 0.8022 -0.8318 0.0000
vt 0.8140 -0.8032 0.0000
vt 0.8570 -0.8210 0.0000
vt 0.8472 -0.8423 0.0000
vt 0.9144 -0.9436 0.0000
vt 0.9078 -0.9195 0.0000
vt 0.9474 -0.9021 0.0000
vt 0.9534 -0.9200 0.0000
vt 0.8089 -0.9329 0.0000
vt 0.8506 -0.9177 0.0000
vt 0.9018 -0.8884 0.0000
vt 0.9431 -0.8792 0.0000
vt 0.9061 -0.7851 0.0000
vt 0.9493 -0.7999 0.0000
vt 0.8293 -0.7829 0.0000
vt 0.8700 -0.8072 0.0000
vt 0.9653 -0.8888 0.0000
vt 0.9724 -0.9007 0.0000
vt 0.8696 -0.8513 0.0000
vt 0.8654 -0.8715 0.0000
vt 0.9709 -0.8150 0.0000
vt 0.9650 -0.8333 0.0000
vt 0.8701 -0.9069 0.0000
vt 0.8783 -0.9156 0.0000
vt 0.9621 -0.8727 0.0000
vt 0.8775 -0.8355 0.0000
vt 0.8917 -0.9177 0.0000
vt 0.8656 -0.8916 0.0000
vt 0.9622 -0.8534 0.0000
vt 0.8885 -0.8271 0.0000
vt 0.9810 -0.8469 0.0000
vt 0.9786 -0.8551 0.0000
vt 0.9809 -0.8697 0.0000
vt 0.9852 -0.8732 0.0000
vt 0.8859 -0.8657 0.0000
vt 0.8835 -0.8737 0.0000
vt 0.9852 -0.8405 0.0000
vt 0.8858 -0.8882 0.0000
vt 0.8899 -0.8914 0.0000
vt 0.9786 -0.8632 0.0000
vt 0.8901 -0.8597 0.0000
vt 0.8952 -0.8905 0.0000
vt 0.8835 -0.8818 0.0000
vt 0.8952 -0.8573 0.0000
# 60 texture coords

o brazoizquierdo
g brazoizquierdo
usemtl 07___Default
s 1
f 1/1/1 2/2/2 3/3/3 
f 1/1/1 3/3/3 4/4/4 
f 5/1/5 6/2/6 7/3/7 
f 5/1/5 7/3/7 8/4/8 
f 9/1/9 10/2/10 6/3/6 
f 9/1/9 6/3/6 5/4/5 
f 11/1/11 12/2/12 10/3/13 
f 11/1/11 10/3/13 9/4/9 
f 13/1/14 14/2/15 12/3/12 
f 13/1/14 12/3/12 11/4/16 
f 15/1/17 16/2/18 14/3/19 
f 15/1/17 14/3/19 13/4/14 
f 17/1/20 18/2/21 19/3/22 
f 17/1/20 19/3/22 20/4/17 
f 21/1/23 22/2/24 18/3/21 
f 21/1/23 18/3/21 17/4/20 
f 23/1/25 24/2/26 22/3/24 
f 23/1/25 22/3/24 21/4/23 
f 25/1/27 26/2/28 24/3/29 
f 25/1/27 24/3/29 23/4/25 
f 27/1/30 28/2/31 26/3/28 
f 27/1/30 26/3/28 25/4/27 
f 4/1/4 3/2/3 28/3/31 
f 4/1/4 28/3/31 27/4/32 
f 7/1/2 29/2/33 30/3/34 
f 7/1/2 30/3/34 31/4/3 
f 6/1/35 32/2/36 29/3/33 
f 6/1/35 29/3/33 7/4/2 
f 10/1/13 33/2/37 32/3/36 
f 10/1/13 32/3/36 6/4/6 
f 12/1/12 34/2/38 33/3/37 
f 12/1/12 33/3/37 10/4/10 
f 14/1/15 35/2/39 34/3/38 
f 14/1/15 34/3/38 12/4/12 
f 16/1/40 36/2/41 35/3/42 
f 16/1/40 35/3/42 14/4/15 
f 37/1/21 38/2/43 36/3/44 
f 37/1/21 36/3/44 16/4/18 
f 39/1/24 40/2/45 38/3/43 
f 39/1/24 38/3/43 37/4/21 
f 41/1/29 42/2/46 40/3/47 
f 41/1/29 40/3/47 39/4/24 
f 26/1/48 43/2/49 44/3/46 
f 26/1/48 44/3/46 24/4/26 
f 45/1/50 46/2/51 47/3/49 
f 45/1/50 47/3/49 48/4/28 
f 31/1/3 30/2/34 46/3/51 
f 31/1/3 46/3/51 45/4/31 
f 29/1/52 49/2/53 50/3/54 
f 29/1/52 50/3/54 30/4/55 
f 32/1/56 51/2/57 49/3/58 
f 32/1/56 49/3/58 29/4/59 
f 33/1/37 52/2/60 51/3/57 
f 33/1/37 51/3/57 32/4/36 
f 34/1/38 53/2/61 52/3/60 
f 34/1/38 52/3/60 33/4/37 
f 35/1/39 54/2/62 53/3/63 
f 35/1/39 53/3/63 34/4/38 
f 36/1/41 55/2/64 54/3/62 
f 36/1/41 54/3/62 35/4/65 
f 38/1/43 56/2/66 55/3/64 
f 38/1/43 55/3/64 36/4/67 
f 40/1/45 57/2/68 56/3/69 
f 40/1/45 56/3/69 38/4/43 
f 42/1/46 58/2/70 57/3/68 
f 42/1/46 57/3/68 40/4/47 
f 47/1/49 59/2/71 58/3/70 
f 47/1/49 58/3/70 42/4/46 
f 46/1/72 60/2/73 59/3/74 
f 46/1/72 59/3/74 47/4/49 
f 30/1/55 50/2/75 60/3/73 
f 30/1/55 60/3/73 46/4/51 
f 49/1/53 61/2/76 62/3/77 
f 49/1/53 62/3/77 50/4/75 
f 51/1/57 63/2/78 61/3/76 
f 51/1/57 61/3/76 49/4/53 
f 52/1/60 64/2/79 63/3/78 
f 52/1/60 63/3/78 51/4/57 
f 53/1/61 65/2/80 64/3/79 
f 53/1/61 64/3/79 52/4/60 
f 54/1/62 66/2/81 65/3/80 
f 54/1/62 65/3/80 53/4/61 
f 55/1/64 67/2/82 66/3/81 
f 55/1/64 66/3/81 54/4/62 
f 56/1/69 68/2/83 67/3/84 
f 56/1/69 67/3/84 55/4/85 
f 57/1/68 69/2/86 68/3/83 
f 57/1/68 68/3/83 56/4/66 
f 58/1/87 70/2/88 69/3/86 
f 58/1/87 69/3/86 57/4/68 
f 59/1/71 71/2/89 70/3/90 
f 59/1/71 70/3/90 58/4/70 
f 60/1/91 72/2/92 71/3/89 
f 60/1/91 71/3/89 59/4/71 
f 50/1/75 62/2/93 72/3/94 
f 50/1/75 72/3/94 60/4/73 
f 61/1/76 73/2/95 74/3/96 
f 61/1/76 74/3/96 62/4/93 
f 63/1/78 75/2/97 73/3/95 
f 63/1/78 73/3/95 61/4/76 
f 64/1/79 76/2/98 75/3/97 
f 64/1/79 75/3/97 63/4/78 
f 65/1/80 77/2/99 76/3/98 
f 65/1/80 76/3/98 64/4/79 
f 66/1/81 78/2/100 77/3/99 
f 66/1/81 77/3/99 65/4/80 
f 67/1/84 79/2/101 78/3/100 
f 67/1/84 78/3/100 66/4/81 
f 68/1/83 80/2/102 79/3/103 
f 68/1/83 79/3/103 67/4/104 
f 69/1/86 81/2/105 80/3/102 
f 69/1/86 80/3/102 68/4/83 
f 70/1/90 82/2/106 81/3/107 
f 70/1/90 81/3/107 69/4/86 
f 71/1/89 83/2/108 82/3/106 
f 71/1/89 82/3/106 70/4/88 
f 72/1/94 84/2/109 83/3/110 
f 72/1/94 83/3/110 71/4/89 
f 62/1/111 74/2/96 84/3/109 
f 62/1/111 84/3/109 72/4/94 
f 73/1/95 85/2/112 86/3/113 
f 73/1/95 86/3/113 74/4/96 
f 75/1/114 87/2/115 85/3/112 
f 75/1/114 85/3/112 73/4/95 
f 76/1/98 88/2/116 87/3/115 
f 76/1/98 87/3/115 75/4/97 
f 77/1/117 89/2/118 88/3/116 
f 77/1/117 88/3/116 76/4/98 
f 78/1/100 90/2/119 89/3/118 
f 78/1/100 89/3/118 77/4/99 
f 79/1/120 91/2/121 90/3/122 
f 79/1/120 90/3/122 78/4/123 
f 80/1/102 92/2/124 91/3/121 
f 80/1/102 91/3/121 79/4/125 
f 81/1/105 93/2/126 92/3/124 
f 81/1/105 92/3/124 80/4/127 
f 82/1/106 94/2/128 93/3/129 
f 82/1/106 93/3/129 81/4/105 
f 83/1/130 95/2/131 94/3/128 
f 83/1/130 94/3/128 82/4/106 
f 84/1/109 96/2/132 95/3/133 
f 84/1/109 95/3/133 83/4/110 
f 74/1/134 86/2/113 96/3/135 
f 74/1/134 96/3/135 84/4/109 
f 85/1/112 97/2/136 98/3/137 
f 85/1/112 98/3/137 86/4/113 
f 87/1/115 99/2/138 97/3/139 
f 87/1/115 97/3/139 85/4/112 
f 88/1/140 100/2/141 99/3/138 
f 88/1/140 99/3/138 87/4/115 
f 89/1/118 101/2/142 100/3/141 
f 89/1/118 100/3/141 88/4/116 
f 90/1/122 102/2/143 101/3/142 
f 90/1/122 101/3/142 89/4/118 
f 91/1/121 103/2/144 102/3/145 
f 91/1/121 102/3/145 90/4/122 
f 92/1/124 104/2/146 103/3/147 
f 92/1/124 103/3/147 91/4/121 
f 93/1/126 105/2/148 104/3/149 
f 93/1/126 104/3/149 92/4/124 
f 94/1/128 106/2/150 105/3/151 
f 94/1/128 105/3/151 93/4/126 
f 95/1/131 107/2/152 106/3/153 
f 95/1/131 106/3/153 94/4/128 
f 96/1/132 108/2/154 107/3/155 
f 96/1/132 107/3/155 95/4/131 
f 86/1/113 98/2/137 108/3/156 
f 86/1/113 108/3/156 96/4/132 
f 97/1/157 109/2/158 110/3/159 
f 97/1/157 110/3/159 98/4/137 
f 99/1/160 111/2/161 109/3/162 
f 99/1/160 109/3/162 97/4/136 
f 100/1/141 112/2/163 111/3/164 
f 100/1/141 111/3/164 99/4/160 
f 101/1/165 113/2/166 112/3/163 
f 101/1/165 112/3/163 100/4/141 
f 102/1/143 114/2/167 113/3/166 
f 102/1/143 113/3/166 101/4/165 
f 103/1/147 115/2/168 114/3/167 
f 103/1/147 114/3/167 102/4/169 
f 104/1/146 116/2/170 115/3/168 
f 104/1/146 115/3/168 103/4/144 
f 105/1/151 117/2/171 116/3/170 
f 105/1/151 116/3/170 104/4/146 
f 106/1/153 118/2/172 117/3/171 
f 106/1/153 117/3/171 105/4/151 
f 107/1/155 119/2/173 118/3/172 
f 107/1/155 118/3/172 106/4/150 
f 108/1/174 120/2/175 119/3/176 
f 108/1/174 119/3/176 107/4/152 
f 98/1/137 110/2/159 120/3/175 
f 98/1/137 120/3/175 108/4/174 
f 120/5/175 110/6/159 121/7/177 
f 120/5/175 121/7/177 122/8/178 
f 111/9/161 112/10/163 123/11/179 
f 111/9/161 123/11/179 124/12/180 
f 118/13/172 119/14/173 125/15/181 
f 118/13/172 125/15/181 126/16/182 
f 113/17/183 114/18/184 127/19/185 
f 113/17/183 127/19/185 128/20/186 
f 115/21/168 116/22/170 129/23/187 
f 115/21/168 129/23/187 130/24/188 
f 109/25/162 111/9/161 124/12/180 
f 109/25/162 124/12/180 131/26/189 
f 110/6/159 109/25/162 131/26/189 
f 110/6/159 131/26/189 121/7/177 
f 117/27/171 118/13/172 126/16/182 
f 117/27/171 126/16/182 132/28/190 
f 112/10/163 113/17/183 128/20/186 
f 112/10/163 128/20/186 123/11/179 
f 119/14/173 120/29/175 122/30/178 
f 119/14/173 122/30/178 125/15/181 
f 114/18/184 115/31/168 130/32/188 
f 114/18/184 130/32/188 127/19/185 
f 116/22/170 117/27/171 132/28/190 
f 116/22/170 132/28/190 129/23/187 
f 130/24/188 129/23/187 133/33/191 
f 130/24/188 133/33/191 134/34/192 
f 123/11/179 128/20/186 135/35/193 
f 123/11/179 135/35/193 136/36/194 
f 125/15/181 122/30/178 137/37/195 
f 125/15/181 137/37/195 138/38/196 
f 121/7/177 131/26/189 139/39/197 
f 121/7/177 139/39/197 140/40/198 
f 129/23/187 132/28/190 141/41/199 
f 129/23/187 141/41/199 133/33/191 
f 128/20/186 127/19/185 142/42/200 
f 128/20/186 142/42/200 135/35/193 
f 122/8/178 121/7/177 140/40/198 
f 122/8/178 140/40/198 137/43/195 
f 131/26/189 124/12/180 143/44/201 
f 131/26/189 143/44/201 139/39/197 
f 132/28/190 126/16/182 144/45/202 
f 132/28/190 144/45/202 141/41/199 
f 127/19/185 130/32/188 134/46/192 
f 127/19/185 134/46/192 142/42/200 
f 124/12/180 123/11/179 136/36/194 
f 124/12/180 136/36/194 143/44/201 
f 126/16/182 125/15/181 138/38/196 
f 126/16/182 138/38/196 144/45/202 
f 144/45/202 138/38/196 145/47/203 
f 144/45/202 145/47/203 146/48/204 
f 134/34/192 133/33/191 147/49/205 
f 134/34/192 147/49/205 148/50/206 
f 136/36/194 135/35/193 149/51/207 
f 136/36/194 149/51/207 150/52/208 
f 138/38/196 137/37/195 151/53/209 
f 138/38/196 151/53/209 145/47/203 
f 140/40/198 139/39/197 152/54/210 
f 140/40/198 152/54/210 153/55/211 
f 133/33/191 141/41/199 154/56/212 
f 133/33/191 154/56/212 147/49/205 
f 135/35/193 142/42/200 155/57/213 
f 135/35/193 155/57/213 149/51/207 
f 137/43/195 140/40/198 153/55/211 
f 137/43/195 153/55/211 151/58/209 
f 139/39/197 143/44/201 156/59/214 
f 139/39/197 156/59/214 152/54/210 
f 141/41/199 144/45/202 146/48/204 
f 141/41/199 146/48/204 154/56/212 
f 142/42/200 134/46/192 148/60/206 
f 142/42/200 148/60/206 155/57/213 
f 143/44/201 136/36/194 150/52/208 
f 143/44/201 150/52/208 156/59/214 
f 155/57/213 148/60/206 151/58/209 
f 155/57/213 151/58/209 153/55/211 
f 153/55/211 152/54/210 149/51/207 
f 153/55/211 149/51/207 155/57/213 
f 152/54/210 156/59/214 150/52/208 
f 152/54/210 150/52/208 149/51/207 
f 145/47/203 151/53/209 148/50/206 
f 145/47/203 148/50/206 147/49/205 
f 146/48/204 145/47/203 147/49/205 
f 146/48/204 147/49/205 154/56/212 
# 274 faces

