# 3ds Max Wavefront OBJ Exporter v0.99 - (c)2007 guruware
# File Created: 20.05.2024 22:00:24

mtllib bmo_cuerpo.mtl

#
# object scene
#

v  0.4655 1.2975 0.6474
v  0.2188 1.2975 0.6474
v  0.3421 1.5123 0.6474
v  0.4655 1.2975 0.6980
v  0.3421 1.5123 0.6980
v  0.2188 1.2975 0.6980
v  -0.8508 0.1671 -0.6874
v  1.2610 0.1671 -0.6874
v  1.2610 0.1671 0.6474
v  -0.8508 0.1671 0.6474
v  -1.2082 0.5245 0.6474
v  -1.2082 3.5829 0.6474
v  -1.2082 3.5829 -0.6874
v  -1.2082 0.5245 -0.6874
v  1.3978 0.1943 0.6474
v  -0.9876 0.1943 0.6474
v  1.2610 3.9403 -0.6874
v  -0.8508 3.9403 -0.6874
v  -0.8508 3.9403 0.6474
v  1.2610 3.9403 0.6474
v  1.6184 0.5245 -0.6874
v  1.6184 3.5829 -0.6874
v  1.6184 3.5829 0.6474
v  1.6184 0.5245 0.6474
v  -0.4315 1.2239 0.6659
v  -0.5585 1.2239 0.6659
v  -0.5585 1.3618 0.6659
v  -0.4315 1.3618 0.6659
v  -0.4315 1.2239 0.6980
v  -0.4315 1.3618 0.6980
v  -0.5585 1.3618 0.6980
v  -0.5585 1.2239 0.6980
v  -0.6705 1.2239 0.6659
v  -0.6705 1.3618 0.6659
v  -0.6705 1.2239 0.6980
v  -0.6705 1.3618 0.6980
v  -0.5585 1.1013 0.6659
v  -0.4315 1.1013 0.6659
v  -0.4315 1.1013 0.6980
v  -0.5585 1.1013 0.6980
v  -0.4315 1.4845 0.6659
v  -0.5585 1.4845 0.6659
v  -0.5585 1.4845 0.6980
v  -0.4315 1.4845 0.6980
v  -0.3195 1.2239 0.6659
v  -0.3195 1.3618 0.6659
v  -0.3195 1.3618 0.6980
v  -0.3195 1.2239 0.6980
v  0.7277 0.9869 0.6474
v  0.7277 0.9869 0.6980
v  0.8051 0.9662 0.6980
v  0.8051 0.9662 0.6474
v  0.8082 1.2467 0.6474
v  0.8082 1.2467 0.6980
v  0.8213 1.2955 0.6980
v  0.8213 1.2955 0.6474
v  0.8618 0.9095 0.6980
v  0.8618 0.9095 0.6474
v  0.8213 1.1979 0.6474
v  0.8213 1.1979 0.6980
v  0.8825 0.8321 0.6980
v  0.8825 0.8321 0.6474
v  0.8570 1.1621 0.6474
v  0.8570 1.1621 0.6980
v  0.8618 0.7546 0.6980
v  0.8618 0.7546 0.6474
v  0.9058 1.1491 0.6474
v  0.9058 1.1491 0.6980
v  0.8051 0.6980 0.6980
v  0.8051 0.6980 0.6474
v  0.9546 1.1621 0.6474
v  0.9546 1.1621 0.6980
v  0.7277 0.6772 0.6980
v  0.7277 0.6772 0.6474
v  0.9903 1.1979 0.6474
v  0.9903 1.1979 0.6980
v  0.6502 0.6980 0.6980
v  0.6502 0.6980 0.6474
v  1.0034 1.2467 0.6474
v  1.0034 1.2467 0.6980
v  0.5935 0.7546 0.6980
v  0.5935 0.7546 0.6474
v  0.9903 1.2955 0.6474
v  0.9903 1.2955 0.6980
v  0.5728 0.8321 0.6980
v  0.5728 0.8321 0.6474
v  0.8570 1.3312 0.6474
v  0.8570 1.3312 0.6980
v  0.9058 1.3443 0.6980
v  0.9058 1.3443 0.6474
v  0.9546 1.3312 0.6474
v  0.9546 1.3312 0.6980
v  0.5935 0.9095 0.6980
v  0.5935 0.9095 0.6474
v  0.6502 0.9662 0.6980
v  0.6502 0.9662 0.6474
v  -0.9876 0.1943 -0.6874
v  -1.1035 0.2718 0.6474
v  -1.1035 0.2718 -0.6874
v  -1.1810 0.3877 0.6474
v  -1.1810 0.3877 -0.6874
v  1.3978 3.9131 0.6474
v  1.3978 3.9131 -0.6874
v  1.5137 3.8356 0.6474
v  1.5137 3.8356 -0.6874
v  1.5912 3.7197 0.6474
v  1.5912 3.7197 -0.6874
v  -0.9876 3.9131 -0.6874
v  -0.9876 3.9131 0.6474
v  -1.1035 3.8356 -0.6874
v  -1.1035 3.8356 0.6474
v  -1.1810 3.7197 -0.6874
v  -1.1810 3.7197 0.6474
v  1.3978 0.1943 -0.6874
v  1.5137 0.2718 -0.6874
v  1.5137 0.2718 0.6474
v  1.5912 0.3877 -0.6874
v  1.5912 0.3877 0.6474
v  -1.1458 0.8524 0.0400
v  -1.1547 0.8954 0.0839
v  -1.2636 0.8472 0.0839
v  -1.2395 0.8105 0.0400
v  -1.1425 0.8367 -0.0200
v  -1.2307 0.7971 -0.0200
v  -1.1458 0.8524 -0.0800
v  -1.2395 0.8105 -0.0800
v  -1.1547 0.8954 -0.1239
v  -1.2636 0.8472 -0.1239
# 128 vertices

vn 0.0000 0.0000 -1.0000
vn 0.0000 0.0000 1.0000
vn 0.0000 -1.0000 -0.0000
vn -1.0000 0.0000 -0.0000
vn 0.0000 1.0000 -0.0000
vn 1.0000 0.0000 -0.0000
vn -0.8672 0.4980 -0.0000
vn 0.8672 0.4980 -0.0000
vn 0.2588 0.9659 -0.0000
vn -0.9659 0.2588 -0.0000
vn 0.7071 0.7071 -0.0000
vn -0.9659 -0.2588 -0.0000
vn 0.9659 0.2588 -0.0000
vn -0.7071 -0.7071 -0.0000
vn 0.9659 -0.2588 -0.0000
vn -0.2588 -0.9659 -0.0000
vn 0.7071 -0.7071 -0.0000
vn 0.2588 -0.9659 -0.0000
vn -0.2588 0.9659 -0.0000
vn -0.7071 0.7071 -0.0000
vn -0.1951 -0.9808 -0.0000
vn -0.5556 -0.8315 -0.0000
vn -0.8315 -0.5556 -0.0000
vn -0.9808 -0.1951 -0.0000
vn 0.1951 0.9808 -0.0000
vn 0.5556 0.8315 -0.0000
vn 0.8315 0.5556 -0.0000
vn 0.9808 0.1951 -0.0000
vn -0.1951 0.9808 -0.0000
vn -0.5556 0.8315 -0.0000
vn -0.8315 0.5556 -0.0000
vn -0.9808 0.1951 -0.0000
vn 0.1951 -0.9808 -0.0000
vn 0.5556 -0.8315 -0.0000
vn 0.8315 -0.5556 -0.0000
vn 0.9808 -0.1951 -0.0000
vn 0.3510 -0.7861 0.5088
vn 0.1945 -0.4388 0.8773
vn 0.2639 -0.3995 0.8779
vn 0.4755 -0.7152 0.5122
vn 0.4089 -0.9126 -0.0000
vn 0.5547 -0.8320 -0.0000
vn 0.3510 -0.7861 -0.5088
vn 0.5548 -0.8320 -0.0000
vn 0.4755 -0.7152 -0.5122
vn 0.1945 -0.4387 -0.8773
vn 0.2639 -0.3995 -0.8779
# 47 vertex normals

vt 0.7728 -0.8897 0.0000
vt 0.7408 -0.8897 0.0000
vt 0.7568 -0.9176 0.0000
vt 0.4590 -0.0840 0.0000
vt 0.6972 -0.0840 0.0000
vt 0.6972 -0.3222 0.0000
vt 0.4590 -0.3222 0.0000
vt 0.9888 -0.0694 0.0000
vt 0.9888 -0.7275 0.0000
vt 0.7300 -0.7275 0.0000
vt 0.7300 -0.0694 0.0000
vt 0.5728 -0.0469 0.0000
vt 0.6212 -0.0541 0.0000
vt 0.1171 -0.0541 0.0000
vt 0.1655 -0.0469 0.0000
vt 0.7614 -0.8451 0.0000
vt 0.7512 -0.8451 0.0000
vt 0.7512 -0.8561 0.0000
vt 0.7614 -0.8561 0.0000
vt 0.7423 -0.8451 0.0000
vt 0.7423 -0.8561 0.0000
vt 0.7576 -0.8561 0.0000
vt 0.7576 -0.8451 0.0000
vt 0.7550 -0.8451 0.0000
vt 0.7550 -0.8561 0.0000
vt 0.7512 -0.8493 0.0000
vt 0.7423 -0.8493 0.0000
vt 0.7423 -0.8518 0.0000
vt 0.7512 -0.8518 0.0000
vt 0.7614 -0.8518 0.0000
vt 0.7614 -0.8493 0.0000
vt 0.7614 -0.8353 0.0000
vt 0.7512 -0.8353 0.0000
vt 0.7550 -0.8353 0.0000
vt 0.7576 -0.8353 0.0000
vt 0.7512 -0.8659 0.0000
vt 0.7614 -0.8659 0.0000
vt 0.7550 -0.8659 0.0000
vt 0.7576 -0.8659 0.0000
vt 0.7703 -0.8561 0.0000
vt 0.7703 -0.8451 0.0000
vt 0.7703 -0.8493 0.0000
vt 0.7703 -0.8518 0.0000
vt 0.7601 -0.9176 0.0000
vt 0.7601 -0.8897 0.0000
vt 0.7535 -0.8897 0.0000
vt 0.7535 -0.9176 0.0000
vt 0.7408 -0.9069 0.0000
vt 0.7728 -0.9069 0.0000
vt 0.7728 -0.9003 0.0000
vt 0.7408 -0.9003 0.0000
vt 0.7576 -0.9570 0.0000
vt 0.7576 -0.9519 0.0000
vt 0.7654 -0.9519 0.0000
vt 0.7654 -0.9570 0.0000
vt 0.7626 -0.7998 0.0000
vt 0.7513 -0.7998 0.0000
vt 0.7513 -0.8081 0.0000
vt 0.7626 -0.8081 0.0000
vt 0.7711 -0.9519 0.0000
vt 0.7711 -0.9570 0.0000
vt 0.7626 -0.7915 0.0000
vt 0.7513 -0.7915 0.0000
vt 0.7601 -0.9623 0.0000
vt 0.7550 -0.9623 0.0000
vt 0.7550 -0.9545 0.0000
vt 0.7601 -0.9545 0.0000
vt 0.7487 -0.8055 0.0000
vt 0.7487 -0.7941 0.0000
vt 0.7426 -0.7941 0.0000
vt 0.7426 -0.8055 0.0000
vt 0.7550 -0.9467 0.0000
vt 0.7601 -0.9467 0.0000
vt 0.7569 -0.8055 0.0000
vt 0.7569 -0.7941 0.0000
vt 0.7652 -0.8055 0.0000
vt 0.7652 -0.7941 0.0000
vt 0.7713 -0.8055 0.0000
vt 0.7713 -0.7941 0.0000
vt 0.7498 -0.9519 0.0000
vt 0.7498 -0.9570 0.0000
vt 0.7441 -0.9519 0.0000
vt 0.7441 -0.9570 0.0000
vt 0.7550 -0.9680 0.0000
vt 0.7601 -0.9680 0.0000
vt 0.7513 -0.8141 0.0000
vt 0.7626 -0.8141 0.0000
vt 0.6732 -0.0453 0.0000
vt 0.6864 -0.0477 0.0000
vt 0.4562 -0.0477 0.0000
vt 0.4694 -0.0453 0.0000
vt 0.0391 -0.8350 0.0000
vt 0.6992 -0.8350 0.0000
vt 0.6896 -0.8712 0.0000
vt 0.0487 -0.8712 0.0000
vt 0.6622 -0.9019 0.0000
vt 0.0761 -0.9019 0.0000
vt 0.6212 -0.9225 0.0000
vt 0.1171 -0.9225 0.0000
vt 0.5728 -0.9297 0.0000
vt 0.1655 -0.9297 0.0000
vt 0.6622 -0.0746 0.0000
vt 0.0761 -0.0746 0.0000
vt 0.6896 -0.1053 0.0000
vt 0.0487 -0.1053 0.0000
vt 0.6992 -0.1416 0.0000
vt 0.0391 -0.1416 0.0000
vt 0.4350 -0.3521 0.0000
vt 0.7077 -0.3521 0.0000
vt 0.7050 -0.3644 0.0000
vt 0.4376 -0.3644 0.0000
vt 0.6976 -0.3749 0.0000
vt 0.4451 -0.3749 0.0000
vt 0.6864 -0.3818 0.0000
vt 0.4562 -0.3818 0.0000
vt 0.6732 -0.3843 0.0000
vt 0.4694 -0.3843 0.0000
vt 0.6976 -0.0547 0.0000
vt 0.4451 -0.0547 0.0000
vt 0.7050 -0.0651 0.0000
vt 0.4376 -0.0651 0.0000
vt 0.7077 -0.0774 0.0000
vt 0.4350 -0.0774 0.0000
vt 0.4793 -0.1277 0.0000
vt 0.4793 -0.3254 0.0000
vt 0.6770 -0.3254 0.0000
vt 0.6770 -0.1277 0.0000
vt 0.7426 -0.7915 0.0000
vt 0.7426 -0.8081 0.0000
vt 0.7404 -0.7998 0.0000
vt 0.7487 -0.8141 0.0000
vt 0.7487 -0.7855 0.0000
vt 0.7569 -0.8163 0.0000
vt 0.7569 -0.7832 0.0000
vt 0.7652 -0.7855 0.0000
vt 0.7652 -0.8141 0.0000
vt 0.7713 -0.7915 0.0000
vt 0.7713 -0.8081 0.0000
vt 0.7735 -0.7998 0.0000
vt 0.7441 -0.9467 0.0000
vt 0.7441 -0.9623 0.0000
vt 0.7420 -0.9545 0.0000
vt 0.7498 -0.9680 0.0000
vt 0.7498 -0.9410 0.0000
vt 0.7576 -0.9701 0.0000
vt 0.7576 -0.9389 0.0000
vt 0.7654 -0.9410 0.0000
vt 0.7654 -0.9680 0.0000
vt 0.7711 -0.9467 0.0000
vt 0.7711 -0.9623 0.0000
vt 0.7732 -0.9545 0.0000
# 151 texture coords

o scene
g scene
usemtl 07___Default
s 1
f 1/1/1 2/2/1 3/3/1 
f 4/1/2 5/3/2 6/2/2 
f 7/4/3 8/5/3 9/6/3 
f 7/4/3 9/6/3 10/7/3 
f 11/8/4 12/9/4 13/10/4 
f 11/8/4 13/10/4 14/11/4 
f 9/12/2 15/13/2 16/14/2 
f 9/12/2 16/14/2 10/15/2 
f 17/4/5 18/5/5 19/6/5 
f 17/4/5 19/6/5 20/7/5 
f 21/8/6 22/9/6 23/10/6 
f 21/8/6 23/10/6 24/11/6 
f 25/16/1 26/17/1 27/18/1 
f 25/16/1 27/18/1 28/19/1 
f 29/16/2 30/19/2 31/18/2 
f 29/16/2 31/18/2 32/17/2 
f 26/17/1 33/20/1 34/21/1 
f 26/17/1 34/21/1 27/18/1 
f 34/22/4 33/23/4 35/24/4 
f 34/22/4 35/24/4 36/25/4 
f 32/26/3 35/27/3 33/28/3 
f 32/26/3 33/28/3 26/29/3 
f 31/18/2 36/21/2 35/20/2 
f 31/18/2 35/20/2 32/17/2 
f 27/29/5 34/28/5 36/27/5 
f 27/29/5 36/27/5 31/26/5 
f 37/29/3 38/30/3 39/31/3 
f 37/29/3 39/31/3 40/26/3 
f 25/16/1 38/32/1 37/33/1 
f 25/16/1 37/33/1 26/17/1 
f 29/24/6 39/34/6 38/35/6 
f 29/24/6 38/35/6 25/23/6 
f 32/17/2 40/33/2 39/32/2 
f 32/17/2 39/32/2 29/16/2 
f 26/23/4 37/35/4 40/34/4 
f 26/23/4 40/34/4 32/24/4 
f 41/30/5 42/29/5 43/26/5 
f 41/30/5 43/26/5 44/31/5 
f 27/18/1 42/36/1 41/37/1 
f 27/18/1 41/37/1 28/19/1 
f 31/25/4 43/38/4 42/39/4 
f 31/25/4 42/39/4 27/22/4 
f 30/19/2 44/37/2 43/36/2 
f 30/19/2 43/36/2 31/18/2 
f 28/22/6 41/39/6 44/38/6 
f 28/22/6 44/38/6 30/25/6 
f 45/23/6 46/22/6 47/25/6 
f 45/23/6 47/25/6 48/24/6 
f 28/19/1 46/40/1 45/41/1 
f 28/19/1 45/41/1 25/16/1 
f 30/31/5 47/42/5 46/43/5 
f 30/31/5 46/43/5 28/30/5 
f 29/16/2 48/41/2 47/40/2 
f 29/16/2 47/40/2 30/19/2 
f 25/30/3 45/43/3 48/42/3 
f 25/30/3 48/42/3 29/31/3 
f 3/44/7 2/45/7 6/46/7 
f 3/44/7 6/46/7 5/47/7 
f 2/48/3 1/49/3 4/50/3 
f 2/48/3 4/50/3 6/51/3 
f 1/45/8 3/44/8 5/47/8 
f 1/45/8 5/47/8 4/46/8 
f 49/52/9 50/53/9 51/54/9 
f 49/52/9 51/54/9 52/55/9 
f 53/56/10 54/57/10 55/58/10 
f 53/56/10 55/58/10 56/59/10 
f 52/55/11 51/54/11 57/60/11 
f 52/55/11 57/60/11 58/61/11 
f 59/62/12 60/63/12 54/57/12 
f 59/62/12 54/57/12 53/56/12 
f 58/64/13 57/65/13 61/66/13 
f 58/64/13 61/66/13 62/67/13 
f 63/68/14 64/69/14 60/70/14 
f 63/68/14 60/70/14 59/71/14 
f 62/67/15 61/66/15 65/72/15 
f 62/67/15 65/72/15 66/73/15 
f 67/74/16 68/75/16 64/69/16 
f 67/74/16 64/69/16 63/68/16 
f 66/61/17 65/60/17 69/54/17 
f 66/61/17 69/54/17 70/55/17 
f 71/76/18 72/77/18 68/75/18 
f 71/76/18 68/75/18 67/74/18 
f 70/55/18 69/54/18 73/53/18 
f 70/55/18 73/53/18 74/52/18 
f 75/78/17 76/79/17 72/77/17 
f 75/78/17 72/77/17 71/76/17 
f 74/52/16 73/53/16 77/80/16 
f 74/52/16 77/80/16 78/81/16 
f 79/56/15 80/57/15 76/63/15 
f 79/56/15 76/63/15 75/62/15 
f 78/81/14 77/80/14 81/82/14 
f 78/81/14 81/82/14 82/83/14 
f 83/59/13 84/58/13 80/57/13 
f 83/59/13 80/57/13 79/56/13 
f 82/73/12 81/72/12 85/66/12 
f 82/73/12 85/66/12 86/67/12 
f 87/68/19 88/69/19 89/75/19 
f 87/68/19 89/75/19 90/74/19 
f 91/76/11 92/77/11 84/79/11 
f 91/76/11 84/79/11 83/78/11 
f 86/67/10 85/66/10 93/65/10 
f 86/67/10 93/65/10 94/64/10 
f 90/74/9 89/75/9 92/77/9 
f 90/74/9 92/77/9 91/76/9 
f 94/64/20 93/65/20 95/84/20 
f 94/64/20 95/84/20 96/85/20 
f 56/59/20 55/58/20 88/86/20 
f 56/59/20 88/86/20 87/87/20 
f 96/81/19 95/80/19 50/53/19 
f 96/81/19 50/53/19 49/52/19 
f 7/4/21 10/5/21 16/6/21 
f 7/4/21 16/6/21 97/7/21 
f 97/4/22 16/5/22 98/6/22 
f 97/4/22 98/6/22 99/7/22 
f 99/4/23 98/5/23 100/6/23 
f 99/4/23 100/6/23 101/7/23 
f 101/4/24 100/5/24 11/6/24 
f 101/4/24 11/6/24 14/7/24 
f 17/4/25 20/5/25 102/6/25 
f 17/4/25 102/6/25 103/7/25 
f 103/4/26 102/5/26 104/6/26 
f 103/4/26 104/6/26 105/7/26 
f 105/4/27 104/5/27 106/6/27 
f 105/4/27 106/6/27 107/7/27 
f 107/4/28 106/5/28 23/6/28 
f 107/4/28 23/6/28 22/7/28 
f 19/4/29 18/5/29 108/6/29 
f 19/4/29 108/6/29 109/7/29 
f 109/4/30 108/5/30 110/6/30 
f 109/4/30 110/6/30 111/7/30 
f 111/4/31 110/5/31 112/6/31 
f 111/4/31 112/6/31 113/7/31 
f 113/4/32 112/5/32 13/6/32 
f 113/4/32 13/6/32 12/7/32 
f 9/4/33 8/5/33 114/6/33 
f 9/4/33 114/6/33 15/7/33 
f 15/4/34 114/5/34 115/6/34 
f 15/4/34 115/6/34 116/7/34 
f 116/4/35 115/5/35 117/6/35 
f 116/4/35 117/6/35 118/7/35 
f 118/4/36 117/5/36 21/6/36 
f 118/4/36 21/6/36 24/7/36 
f 7/88/1 97/89/1 114/90/1 
f 7/88/1 114/90/1 8/91/1 
f 12/92/2 23/93/2 106/94/2 
f 12/92/2 106/94/2 113/95/2 
f 113/95/2 106/94/2 104/96/2 
f 113/95/2 104/96/2 111/97/2 
f 111/97/2 104/96/2 102/98/2 
f 111/97/2 102/98/2 109/99/2 
f 109/99/2 102/98/2 20/100/2 
f 109/99/2 20/100/2 19/101/2 
f 16/14/2 15/13/2 116/102/2 
f 16/14/2 116/102/2 98/103/2 
f 98/103/2 116/102/2 118/104/2 
f 98/103/2 118/104/2 100/105/2 
f 100/105/2 118/104/2 24/106/2 
f 100/105/2 24/106/2 11/107/2 
f 11/107/2 24/106/2 23/93/2 
f 11/107/2 23/93/2 12/92/2 
f 22/108/1 13/109/1 112/110/1 
f 22/108/1 112/110/1 107/111/1 
f 107/111/1 112/110/1 110/112/1 
f 107/111/1 110/112/1 105/113/1 
f 105/113/1 110/112/1 108/114/1 
f 105/113/1 108/114/1 103/115/1 
f 103/115/1 108/114/1 18/116/1 
f 103/115/1 18/116/1 17/117/1 
f 114/90/1 97/89/1 99/118/1 
f 114/90/1 99/118/1 115/119/1 
f 115/119/1 99/118/1 101/120/1 
f 115/119/1 101/120/1 117/121/1 
f 117/121/1 101/120/1 14/122/1 
f 117/121/1 14/122/1 21/123/1 
f 21/123/1 14/122/1 13/109/1 
f 21/123/1 13/109/1 22/108/1 
f 119/124/37 120/125/38 121/126/39 
f 119/124/37 121/126/39 122/127/40 
f 123/124/41 119/125/37 122/126/40 
f 123/124/41 122/126/40 124/127/42 
f 125/124/43 123/125/41 124/126/44 
f 125/124/43 124/126/44 126/127/45 
f 127/124/46 125/125/43 126/126/45 
f 127/124/46 126/126/45 128/127/47 
f 60/128/2 55/129/2 54/130/2 
f 55/129/2 60/128/2 88/131/2 
f 88/131/2 60/128/2 64/132/2 
f 88/131/2 64/132/2 89/133/2 
f 89/133/2 64/132/2 68/134/2 
f 89/133/2 68/134/2 72/135/2 
f 89/133/2 72/135/2 92/136/2 
f 92/136/2 72/135/2 76/137/2 
f 92/136/2 76/137/2 84/138/2 
f 84/138/2 76/137/2 80/139/2 
f 56/129/1 59/128/1 53/130/1 
f 59/128/1 56/129/1 87/131/1 
f 59/128/1 87/131/1 63/132/1 
f 63/132/1 87/131/1 90/133/1 
f 63/132/1 90/133/1 67/134/1 
f 67/134/1 90/133/1 91/136/1 
f 67/134/1 91/136/1 71/135/1 
f 71/135/1 91/136/1 83/138/1 
f 71/135/1 83/138/1 75/137/1 
f 75/137/1 83/138/1 79/139/1 
f 81/140/2 93/141/2 85/142/2 
f 93/141/2 81/140/2 95/143/2 
f 95/143/2 81/140/2 77/144/2 
f 95/143/2 77/144/2 50/145/2 
f 50/145/2 77/144/2 73/146/2 
f 50/145/2 73/146/2 69/147/2 
f 50/145/2 69/147/2 51/148/2 
f 51/148/2 69/147/2 65/149/2 
f 51/148/2 65/149/2 57/150/2 
f 57/150/2 65/149/2 61/151/2 
f 94/141/1 82/140/1 86/142/1 
f 82/140/1 94/141/1 96/143/1 
f 82/140/1 96/143/1 78/144/1 
f 78/144/1 96/143/1 49/145/1 
f 78/144/1 49/145/1 74/146/1 
f 74/146/1 49/145/1 52/148/1 
f 74/146/1 52/148/1 70/147/1 
f 70/147/1 52/148/1 58/150/1 
f 70/147/1 58/150/1 66/149/1 
f 66/149/1 58/150/1 62/151/1 
# 224 faces

