# Blender v3.0.1 OBJ File: 'coronareyhelado.blend'
# www.blender.org
mtllib coronareyhelado.mtl
o Círculo.001_Mesh
v 0.012767 -0.164183 0.212132
v 0.018055 -0.239125 -0.000000
v 0.012767 -0.164182 -0.212132
v 0.006909 -0.081172 0.277164
v 0.016681 -0.219649 0.114805
v 0.016681 -0.219648 -0.114805
v 0.006909 -0.081172 -0.277164
v 0.513560 -0.088014 0.222635
v 0.312458 -0.170538 -0.000000
v 0.310143 -0.137744 -0.205768
v 0.266264 -0.062871 0.277164
v 0.116433 -0.212610 0.114805
v 0.116433 -0.212610 -0.114805
v 0.106661 -0.074133 -0.277164
v 0.016478 -0.145738 0.190919
v 0.021237 -0.213186 -0.000000
v 0.016478 -0.145738 -0.190919
v 0.011206 -0.071029 0.249447
v 0.020000 -0.195657 0.103324
v 0.020000 -0.195657 -0.103325
v 0.011206 -0.071028 -0.249448
v 0.512181 -0.084110 0.217967
v 0.309740 -0.160444 -0.000000
v 0.307638 -0.130647 -0.197283
v 0.260586 -0.053431 0.249447
v 0.109777 -0.189322 0.103324
v 0.109777 -0.189322 -0.103325
v 0.100983 -0.064693 -0.249448
v 0.132716 -0.132683 0.243703
v 0.179797 -0.129361 0.243703
v 0.131975 -0.122183 0.231094
v 0.179056 -0.118860 0.231094
v 0.134637 -0.159916 0.220909
v 0.181719 -0.156594 0.220909
v 0.133896 -0.149415 0.208301
v 0.180978 -0.146093 0.208301
v 0.126870 -0.125190 0.239589
v 0.155982 -0.127135 0.252636
v 0.184533 -0.121121 0.239589
v 0.154848 -0.111059 0.233334
v 0.119101 -0.133722 0.216050
v 0.193423 -0.128478 0.216050
v 0.157711 -0.151642 0.199367
v 0.129161 -0.157656 0.212415
v 0.186824 -0.153587 0.212415
v 0.158846 -0.167717 0.218670
v 0.120271 -0.150298 0.235953
v 0.194592 -0.145054 0.235953
v 0.209400 -0.135680 0.226002
v 0.104294 -0.143096 0.226002
v 0.157681 -0.151216 0.240204
v 0.158800 -0.167062 0.202839
v 0.156012 -0.127560 0.211800
v 0.154894 -0.111714 0.249164
v 0.139389 0.002466 0.320160
v 0.320379 0.015237 0.320160
v 0.139389 0.002466 0.279840
v 0.320379 0.015237 0.279840
v 0.230338 0.002411 0.275309
v 0.119505 -0.005410 0.300000
v 0.341171 0.010232 0.300000
v 0.230338 0.002411 0.324691
v 0.231364 -0.012127 0.300000
v -0.000000 0.016745 -0.300000
v 0.000000 0.016745 0.300000
v -0.012767 0.197673 0.212132
v -0.018055 0.272616 -0.000000
v -0.012767 0.197673 -0.212132
v -0.006909 0.114663 0.277164
v -0.016681 0.253139 0.114805
v -0.016681 0.253139 -0.114805
v -0.006909 0.114663 -0.277164
v 0.297760 0.037756 -0.291000
v 0.651445 0.062713 0.269525
v 0.493760 0.192585 0.222635
v 0.283062 0.246050 -0.000000
v 0.285376 0.213256 -0.205768
v 0.252446 0.132964 0.277164
v 0.083071 0.260178 0.114805
v 0.083071 0.260178 -0.114805
v 0.092843 0.121702 -0.277164
v 0.004988 0.017097 -0.270000
v 0.004988 0.017097 0.270000
v -0.006503 0.179933 0.190919
v -0.011262 0.247381 -0.000000
v -0.006503 0.179932 -0.190919
v -0.001231 0.105223 0.249447
v -0.010025 0.229852 0.103324
v -0.010025 0.229852 -0.103325
v -0.001231 0.105223 -0.249448
v 0.295765 0.037615 -0.279000
v 0.650347 0.062636 0.262923
v 0.492943 0.188526 0.217967
v 0.281789 0.235675 -0.000000
v 0.283891 0.205878 -0.197283
v 0.248149 0.122820 0.249447
v 0.079752 0.236187 0.103324
v 0.079752 0.236187 -0.103325
v 0.088546 0.111558 -0.249448
v 0.110417 0.183330 0.243703
v 0.157498 0.186652 0.243703
v 0.111158 0.172830 0.231094
v 0.158239 0.176152 0.231094
v 0.108495 0.210563 0.220909
v 0.155577 0.213885 0.220909
v 0.109236 0.200062 0.208301
v 0.156318 0.203385 0.208301
v 0.105681 0.175090 0.239589
v 0.134232 0.181104 0.252636
v 0.163344 0.179159 0.239589
v 0.135366 0.165028 0.233334
v 0.096791 0.182447 0.216050
v 0.171113 0.187692 0.216050
v 0.132503 0.205611 0.199367
v 0.103390 0.207556 0.212415
v 0.161053 0.211625 0.212415
v 0.131368 0.221686 0.218670
v 0.095622 0.199023 0.235953
v 0.169943 0.204267 0.235953
v 0.185921 0.197066 0.226002
v 0.080814 0.189649 0.226002
v 0.132533 0.205185 0.240204
v 0.131414 0.221031 0.202839
v 0.134202 0.181529 0.211800
v 0.135320 0.165683 0.249164
v 0.136002 0.050457 0.320160
v 0.316992 0.063229 0.320160
v 0.136002 0.050457 0.279840
v 0.316992 0.063229 0.279840
v 0.113909 0.024783 0.274541
v 0.342472 0.040911 0.274541
v 0.226043 0.063284 0.275309
v 0.115209 0.055463 0.300000
v 0.336876 0.071104 0.300000
v 0.226043 0.063284 0.324691
v 0.113909 0.024783 0.325459
v 0.342472 0.040911 0.325459
v 0.389809 0.044252 0.300000
v 0.066571 0.021443 0.300000
v 0.228190 0.032847 0.336334
v 0.225017 0.077822 0.300000
v 0.228190 0.032847 0.263666
vn -0.2200 0.3673 -0.9037
vn -0.2509 0.8054 -0.5371
vn 0.1353 0.8326 -0.5371
vn -0.1663 -0.3946 -0.9037
vn -0.1353 -0.8326 -0.5371
vn 0.2509 -0.8054 -0.5371
vn 0.1880 -0.9800 0.0652
vn 0.0654 -0.6281 -0.7754
vn 0.1880 -0.9800 -0.0652
vn 0.0716 -0.6595 0.7483
vn 0.1071 -0.8400 0.5320
vn 0.0430 -0.1400 0.9892
vn 0.0365 -0.2031 -0.9785
vn 0.0803 -0.8556 -0.5113
vn -0.1536 0.9835 -0.0955
vn -0.0203 0.5992 0.8003
vn -0.1536 0.9835 0.0955
vn -0.0346 0.5989 -0.8001
vn -0.0761 0.8580 -0.5080
vn -0.0222 0.2048 -0.9786
vn 0.0053 0.2495 0.9683
vn -0.0413 0.8763 0.4800
vn 0.4894 -0.8234 0.2873
vn -0.9895 0.0391 0.1391
vn 0.3879 0.3953 0.8327
vn 0.2857 -0.9087 -0.3043
vn -0.9914 0.0928 0.0927
vn -0.9914 0.0928 -0.0927
vn -0.9859 -0.0313 0.1643
vn 0.1629 0.9242 0.3453
vn -0.9859 -0.0313 -0.1643
vn 0.3879 0.3953 -0.8327
vn -0.9920 0.1217 -0.0325
vn 0.3709 0.8736 -0.3152
vn 0.4966 -0.3671 0.7865
vn 0.3505 -0.3995 -0.8471
vn -0.9895 0.0391 -0.1391
vn -0.9920 0.1217 0.0325
vn 0.1038 -0.3211 -0.9413
vn -0.0577 -0.3325 -0.9413
vn 0.0486 0.9967 0.0652
vn -0.0235 0.6311 -0.7754
vn 0.0486 0.9967 -0.0652
vn -0.0217 0.6631 0.7483
vn -0.0119 0.8467 0.5320
vn 0.0229 0.1447 0.9892
vn 0.0076 0.2062 -0.9785
vn -0.0406 0.8584 -0.5113
vn -0.0140 -0.9953 -0.0955
vn 0.0640 -0.5961 0.8003
vn -0.0140 -0.9953 0.0955
vn 0.0498 -0.5978 -0.8001
vn 0.0451 -0.8602 -0.5080
vn 0.0068 -0.2058 -0.9786
vn 0.0403 -0.2463 0.9683
vn 0.0822 -0.8734 0.4800
vn 0.3689 0.8839 0.2873
vn -0.9742 -0.1777 0.1391
vn 0.4395 -0.3369 0.8327
vn 0.1552 0.9398 -0.3043
vn -0.9685 -0.2311 0.0927
vn -0.9685 -0.2311 -0.0927
vn -0.9805 -0.1075 0.1643
vn 0.2911 -0.8922 0.3453
vn -0.9805 -0.1075 -0.1643
vn 0.4395 -0.3369 -0.8327
vn -0.9651 -0.2598 -0.0325
vn 0.4899 -0.8128 -0.3152
vn 0.4402 0.4332 0.7865
vn 0.2910 0.4448 -0.8471
vn -0.9742 -0.1777 -0.1391
vn -0.9651 -0.2598 0.0325
vn 0.0577 0.3325 -0.9413
vn -0.1038 0.3211 -0.9413
vn 0.3126 0.9489 0.0427
vn 0.1663 0.3946 -0.9037
vn 0.4428 -0.8956 -0.0428
vn 0.2200 -0.3673 0.9037
vn -0.4701 -0.8773 0.0967
vn 0.5255 0.0924 0.8458
vn 0.5886 -0.8026 0.0967
vn 0.5332 -0.0177 -0.8458
vn 0.4701 0.8773 -0.0967
vn -0.5332 0.0177 0.8458
vn -0.5886 0.8026 -0.0967
vn -0.5255 -0.0924 -0.8458
vn -0.1663 -0.3946 0.9037
vn -0.1353 -0.8326 0.5371
vn 0.2509 -0.8054 0.5371
vn -0.3126 -0.9489 -0.0427
vn -0.3631 -0.2332 -0.9021
vn 0.3923 -0.1799 -0.9021
vn -0.4428 0.8956 0.0427
vn -0.3923 0.1799 0.9021
vn 0.3631 0.2332 0.9021
vn 0.1641 -0.8726 0.4600
vn -0.3554 -0.6402 0.6811
vn 0.4418 -0.5839 0.6811
vn 0.4418 -0.5839 -0.6811
vn -0.3554 -0.6402 -0.6811
vn -0.0577 -0.3325 0.9413
vn 0.1038 -0.3211 0.9413
vn -0.0399 -0.8870 0.4600
vn -0.0399 -0.8870 -0.4600
vn 0.1641 -0.8726 -0.4600
vn 0.4428 -0.8956 0.0428
vn 0.2200 -0.3673 -0.9037
vn 0.3126 0.9489 -0.0427
vn 0.1663 0.3946 0.9037
vn -0.5886 0.8026 0.0967
vn 0.5332 -0.0177 0.8458
vn 0.4701 0.8773 0.0967
vn 0.5255 0.0924 -0.8458
vn 0.5886 -0.8026 -0.0967
vn -0.5255 -0.0924 0.8458
vn -0.4701 -0.8773 -0.0967
vn -0.5332 0.0177 -0.8458
vn -0.2200 0.3673 0.9037
vn -0.2509 0.8054 0.5371
vn 0.1353 0.8326 0.5371
vn -0.4428 0.8956 -0.0427
vn -0.3923 0.1799 -0.9021
vn 0.3631 0.2332 -0.9021
vn -0.3126 -0.9489 0.0428
vn -0.3631 -0.2332 0.9021
vn 0.3923 -0.1799 0.9021
vn 0.0399 0.8870 0.4600
vn -0.4418 0.5839 0.6811
vn 0.3554 0.6402 0.6811
vn 0.3554 0.6402 -0.6811
vn -0.4418 0.5839 -0.6811
vn -0.1038 0.3211 0.9413
vn 0.0577 0.3325 0.9413
vn -0.1641 0.8726 0.4600
vn -0.1641 0.8726 -0.4600
vn 0.0399 0.8870 -0.4600
usemtl (null)
s 1
f 41//1 53//1 43//1 35//1
f 31//2 40//2 53//2 41//2
f 40//3 32//3 42//3 53//3
f 112//4 106//4 114//4 124//4
f 102//5 112//5 124//5 111//5
f 111//6 124//6 113//6 103//6
usemtl Material.011
f 2//7 9//7 12//7 5//7
f 7//8 14//8 10//8 3//8
f 6//9 13//9 9//9 2//9
f 1//10 8//10 11//10 4//10
f 5//11 12//11 8//11 1//11
f 4//12 11//12 74//12 65//12
f 64//13 73//13 14//13 7//13
f 3//14 10//14 13//14 6//14
f 16//15 19//15 26//15 23//15
f 21//16 17//16 24//16 28//16
f 20//17 16//17 23//17 27//17
f 15//18 18//18 25//18 22//18
f 19//19 15//19 22//19 26//19
f 18//20 83//20 92//20 25//20
f 82//21 21//21 28//21 91//21
f 17//22 20//22 27//22 24//22
f 14//23 73//23 91//23 28//23
f 7//24 3//24 17//24 21//24
f 12//25 9//25 23//25 26//25
f 74//26 11//26 25//26 92//26
f 3//27 6//27 20//27 17//27
f 5//28 1//28 15//28 19//28
f 64//29 7//29 21//29 82//29
f 11//30 8//30 22//30 25//30
f 4//31 65//31 83//31 18//31
f 9//32 13//32 27//32 23//32
f 2//33 5//33 19//33 16//33
f 10//34 14//34 28//34 24//34
f 13//35 10//35 24//35 27//35
f 8//36 12//36 26//36 22//36
f 1//37 4//37 18//37 15//37
f 6//38 2//38 16//38 20//38
f 142//39 131//39 58//39 59//39
f 130//40 142//40 59//40 57//40
f 67//41 70//41 79//41 76//41
f 72//42 68//42 77//42 81//42
f 71//43 67//43 76//43 80//43
f 66//44 69//44 78//44 75//44
f 70//45 66//45 75//45 79//45
f 69//46 65//46 74//46 78//46
f 64//47 72//47 81//47 73//47
f 68//48 71//48 80//48 77//48
f 85//49 94//49 97//49 88//49
f 90//50 99//50 95//50 86//50
f 89//51 98//51 94//51 85//51
f 84//52 93//52 96//52 87//52
f 88//53 97//53 93//53 84//53
f 87//54 96//54 92//54 83//54
f 82//55 91//55 99//55 90//55
f 86//56 95//56 98//56 89//56
f 81//57 99//57 91//57 73//57
f 72//58 90//58 86//58 68//58
f 79//59 97//59 94//59 76//59
f 74//60 92//60 96//60 78//60
f 68//61 86//61 89//61 71//61
f 70//62 88//62 84//62 66//62
f 64//63 82//63 90//63 72//63
f 78//64 96//64 93//64 75//64
f 69//65 87//65 83//65 65//65
f 76//66 94//66 98//66 80//66
f 67//67 85//67 88//67 70//67
f 77//68 95//68 99//68 81//68
f 80//69 98//69 95//69 77//69
f 75//70 93//70 97//70 79//70
f 66//71 84//71 87//71 69//71
f 71//72 89//72 85//72 67//72
f 142//73 132//73 129//73 131//73
f 130//74 128//74 132//74 142//74
usemtl Material.012
f 54//75 39//75 32//75 40//75
f 53//76 42//76 36//76 43//76
f 52//77 45//77 34//77 46//77
f 51//78 48//78 30//78 38//78
f 50//79 44//79 33//79 47//79
f 49//80 39//80 30//80 48//80
f 45//81 49//81 48//81 34//81
f 36//82 42//82 49//82 45//82
f 42//83 32//83 39//83 49//83
f 37//84 50//84 47//84 29//84
f 31//85 41//85 50//85 37//85
f 41//86 35//86 44//86 50//86
f 47//87 51//87 38//87 29//87
f 33//88 46//88 51//88 47//88
f 46//89 34//89 48//89 51//89
f 44//90 52//90 46//90 33//90
f 35//91 43//91 52//91 44//91
f 43//92 36//92 45//92 52//92
f 37//93 54//93 40//93 31//93
f 29//94 38//94 54//94 37//94
f 38//95 30//95 39//95 54//95
f 63//96 61//96 56//96 62//96
f 139//97 60//97 55//97 136//97
f 61//98 138//98 137//98 56//98
f 58//99 131//99 138//99 61//99
f 130//100 57//100 60//100 139//100
f 55//101 62//101 140//101 136//101
f 62//102 56//102 137//102 140//102
f 60//103 63//103 62//103 55//103
f 57//104 59//104 63//104 60//104
f 59//105 58//105 61//105 63//105
f 125//106 111//106 103//106 110//106
f 124//107 114//107 107//107 113//107
f 123//108 117//108 105//108 116//108
f 122//109 109//109 101//109 119//109
f 121//110 118//110 104//110 115//110
f 120//111 119//111 101//111 110//111
f 116//112 105//112 119//112 120//112
f 107//113 116//113 120//113 113//113
f 113//114 120//114 110//114 103//114
f 108//115 100//115 118//115 121//115
f 102//116 108//116 121//116 112//116
f 112//117 121//117 115//117 106//117
f 118//118 100//118 109//118 122//118
f 104//119 118//119 122//119 117//119
f 117//120 122//120 119//120 105//120
f 115//121 104//121 117//121 123//121
f 106//122 115//122 123//122 114//122
f 114//123 123//123 116//123 107//123
f 108//124 102//124 111//124 125//124
f 100//125 108//125 125//125 109//125
f 109//126 125//126 110//126 101//126
f 141//127 135//127 127//127 134//127
f 139//128 136//128 126//128 133//128
f 134//129 127//129 137//129 138//129
f 129//130 134//130 138//130 131//130
f 130//131 139//131 133//131 128//131
f 126//132 136//132 140//132 135//132
f 135//133 140//133 137//133 127//133
f 133//134 126//134 135//134 141//134
f 128//135 133//135 141//135 132//135
f 132//136 141//136 134//136 129//136
