# Blender v3.0.1 OBJ File: 'scooterdead.blend'
# www.blender.org
mtllib scooterdeadllanta.mtl
o G_Scooter_FWheel_Malla.004
v 0.078395 -0.096430 0.022904
v 0.078046 -0.097529 -0.016026
v 0.077049 -0.083660 -0.052406
v 0.075558 -0.056936 -0.080699
v 0.073798 -0.021425 -0.096596
v 0.072039 0.017467 -0.097678
v 0.070547 0.053819 -0.083780
v 0.069550 0.082097 -0.057017
v 0.069200 0.097995 -0.021465
v 0.069550 0.099094 0.017465
v 0.070546 0.085226 0.053845
v 0.072038 0.058502 0.082138
v 0.073797 0.022991 0.098035
v 0.075556 -0.015902 0.099117
v 0.077048 -0.052254 0.085219
v 0.078045 -0.080531 0.058456
v 0.061302 -0.068682 0.016572
v 0.061055 -0.069459 -0.010963
v 0.060350 -0.059650 -0.036694
v 0.059296 -0.040749 -0.056705
v 0.058051 -0.015632 -0.067948
v 0.056807 0.011875 -0.068714
v 0.055752 0.037586 -0.058884
v 0.055047 0.057586 -0.039955
v 0.054799 0.068831 -0.014810
v 0.055046 0.069608 0.012725
v 0.055751 0.059799 0.038456
v 0.056806 0.040898 0.058467
v 0.058050 0.015782 0.069710
v 0.059295 -0.011726 0.070476
v 0.060350 -0.037437 0.060646
v 0.061055 -0.057437 0.041717
v 0.060998 -0.062238 0.015101
v 0.060774 -0.062942 -0.009853
v 0.060135 -0.054053 -0.033172
v 0.059179 -0.036923 -0.051308
v 0.058051 -0.014160 -0.061498
v 0.056923 0.010769 -0.062191
v 0.055967 0.034071 -0.053282
v 0.055328 0.052196 -0.036128
v 0.055104 0.062387 -0.013339
v 0.055328 0.063091 0.011615
v 0.055966 0.054202 0.034934
v 0.056922 0.037072 0.053070
v 0.058050 0.014310 0.063260
v 0.059178 -0.010620 0.063953
v 0.060134 -0.033921 0.055044
v 0.060773 -0.052047 0.037890
v 0.074451 -0.061633 0.014963
v 0.074227 -0.062337 -0.009991
v 0.073588 -0.053448 -0.033310
v 0.072632 -0.036318 -0.051446
v 0.071504 -0.013556 -0.061636
v 0.070376 0.011374 -0.062329
v 0.069420 0.034675 -0.053420
v 0.068781 0.052801 -0.036266
v 0.068557 0.062992 -0.013477
v 0.068781 0.063696 0.011477
v 0.069420 0.054807 0.034796
v 0.070376 0.037677 0.052932
v 0.071503 0.014915 0.063122
v 0.072631 -0.010015 0.063815
v 0.073587 -0.033316 0.054907
v 0.074226 -0.051442 0.037752
v 0.071610 -0.171262 0.039981
v 0.084185 -0.153809 0.035998
v 0.083628 -0.155557 -0.025965
v 0.070992 -0.173201 -0.028731
v 0.082042 -0.133484 -0.083870
v 0.069234 -0.148723 -0.092943
v 0.079669 -0.090948 -0.128902
v 0.066601 -0.101555 -0.142879
v 0.076868 -0.034427 -0.154206
v 0.063496 -0.038878 -0.170938
v 0.074068 0.027476 -0.155927
v 0.060390 0.029767 -0.172848
v 0.071693 0.085336 -0.133806
v 0.057758 0.093929 -0.148317
v 0.070107 0.130345 -0.091209
v 0.055998 0.143840 -0.101081
v 0.069549 0.155650 -0.034622
v 0.055380 0.171901 -0.038331
v 0.070106 0.157399 0.027341
v 0.055997 0.173840 0.030381
v 0.071692 0.135325 0.085246
v 0.057756 0.149362 0.094593
v 0.074066 0.092790 0.130279
v 0.060388 0.102194 0.144530
v 0.076866 0.036268 0.155582
v 0.063494 0.039517 0.172589
v 0.079667 -0.025635 0.157304
v 0.066599 -0.029128 0.174498
v 0.082041 -0.083495 0.135182
v 0.069232 -0.093290 0.149967
v 0.083628 -0.128504 0.092585
v 0.070992 -0.143201 0.102731
v 0.071504 0.000679 0.000743
v -0.059793 -0.019458 -0.060290
v -0.060921 0.005471 -0.060983
v -0.061877 0.028773 -0.052074
v -0.059793 -0.005223 0.002089
v -0.057839 -0.160193 0.037454
v -0.058395 -0.161942 -0.024509
v -0.057839 -0.103637 -0.014633
v -0.057489 -0.102539 0.024297
v -0.059981 -0.139869 -0.082414
v -0.058836 -0.089769 -0.051013
v -0.062355 -0.097333 -0.127446
v -0.060327 -0.063045 -0.079306
v -0.065156 -0.040811 -0.152749
v -0.062086 -0.027534 -0.095203
v -0.067956 0.021091 -0.154471
v -0.063846 0.011358 -0.096285
v -0.070330 0.078951 -0.132350
v -0.065338 0.047710 -0.082387
v -0.071917 0.123960 -0.089753
v -0.066334 0.075988 -0.055624
v -0.072475 0.149265 -0.033166
v -0.066685 0.091886 -0.020072
v -0.071918 0.151014 0.028797
v -0.066335 0.092985 0.018858
v -0.070332 0.128940 0.086703
v -0.065339 0.079117 0.055239
v -0.067958 0.086405 0.131735
v -0.063847 0.052393 0.083531
v -0.065158 0.029883 0.157038
v -0.062088 0.016882 0.099428
v -0.062357 -0.032020 0.158760
v -0.060328 -0.022010 0.100510
v -0.059983 -0.089880 0.136638
v -0.058836 -0.058362 0.086612
v -0.058396 -0.134888 0.094041
v -0.057840 -0.086640 0.059849
v -0.043336 -0.074152 -0.009892
v -0.043088 -0.073375 0.017642
v -0.044040 -0.064343 -0.035624
v -0.045095 -0.045442 -0.055634
v -0.046340 -0.020325 -0.066878
v -0.047584 0.007182 -0.067643
v -0.048639 0.032893 -0.057813
v -0.049344 0.052894 -0.038885
v -0.049592 0.064138 -0.013739
v -0.049345 0.064915 0.013795
v -0.048640 0.055107 0.039526
v -0.047585 0.036205 0.059537
v -0.046341 0.011089 0.070781
v -0.045096 -0.016419 0.071546
v -0.044041 -0.042130 0.061716
v -0.043336 -0.062130 0.042787
v -0.043617 -0.067635 -0.008782
v -0.043393 -0.066931 0.016171
v -0.044256 -0.058745 -0.032102
v -0.045212 -0.041616 -0.050237
v -0.046340 -0.018853 -0.060427
v -0.047468 0.006076 -0.061121
v -0.048424 0.029378 -0.052212
v -0.049063 0.047503 -0.035058
v -0.049287 0.057694 -0.012269
v -0.049063 0.058399 0.012685
v -0.048424 0.049509 0.036004
v -0.047468 0.032379 0.054140
v -0.046341 0.009617 0.064330
v -0.045213 -0.015313 0.065023
v -0.044257 -0.038614 0.056115
v -0.043618 -0.056740 0.038960
v -0.057070 -0.068240 -0.008645
v -0.056846 -0.067535 0.016309
v -0.057709 -0.059350 -0.031964
v -0.058665 -0.042220 -0.050099
v -0.062516 0.046899 -0.034920
v -0.062740 0.057089 -0.012131
v -0.062516 0.057794 0.012823
v -0.061877 0.048904 0.036142
v -0.060921 0.031775 0.054278
v -0.059794 0.009012 0.064468
v -0.058666 -0.015917 0.065161
v -0.057710 -0.039219 0.056253
v -0.057071 -0.057345 0.039098
v -0.043669 -0.176444 0.041163
v -0.044287 -0.178383 -0.027549
v -0.046045 -0.153906 -0.091761
v -0.048678 -0.106738 -0.141697
v -0.051783 -0.044060 -0.169756
v -0.054889 0.024585 -0.171666
v -0.057522 0.088747 -0.147135
v -0.059281 0.138657 -0.099899
v -0.059899 0.166718 -0.037149
v -0.059282 0.168657 0.031563
v -0.057523 0.144180 0.095775
v -0.054891 0.097012 0.145712
v -0.051785 0.034334 0.173770
v -0.048680 -0.034311 0.175680
v -0.046047 -0.098472 0.151149
v -0.044288 -0.148383 0.103913
vt 0.935197 0.786719
vt 0.932325 0.785993
vt 0.929890 0.783926
vt 0.935197 0.777183
vt 0.970862 0.959325
vt 0.969292 0.958784
vt 0.969915 0.956173
vt 0.971614 0.956173
vt 0.968719 0.961998
vt 0.967517 0.960996
vt 0.965513 0.963784
vt 0.964862 0.962475
vt 0.961730 0.964411
vt 0.961730 0.962994
vt 0.957947 0.963784
vt 0.958598 0.962475
vt 0.954741 0.961998
vt 0.955943 0.960996
vt 0.952598 0.959325
vt 0.954168 0.958784
vt 0.951846 0.956173
vt 0.953545 0.956173
vt 0.952598 0.953021
vt 0.954168 0.953563
vt 0.954741 0.950348
vt 0.955943 0.951350
vt 0.957947 0.948563
vt 0.958598 0.949871
vt 0.961730 0.947936
vt 0.961730 0.949352
vt 0.965513 0.948563
vt 0.964862 0.949871
vt 0.968719 0.950348
vt 0.967517 0.951350
vt 0.970862 0.953021
vt 0.969292 0.953563
vt 0.946907 0.777183
vt 0.946016 0.782876
vt 0.942849 0.781210
vt 0.943479 0.777183
vt 0.943477 0.787702
vt 0.941054 0.784623
vt 0.939678 0.790927
vt 0.938367 0.786904
vt 0.935197 0.792060
vt 0.935197 0.787705
vt 0.930716 0.790927
vt 0.932028 0.786904
vt 0.926917 0.787702
vt 0.929341 0.784623
vt 0.924379 0.782876
vt 0.927546 0.781210
vt 0.923488 0.777183
vt 0.926915 0.777183
vt 0.924379 0.771490
vt 0.927546 0.773156
vt 0.926917 0.766663
vt 0.929341 0.769743
vt 0.930716 0.763439
vt 0.932028 0.767462
vt 0.935197 0.762306
vt 0.935197 0.766661
vt 0.939678 0.763439
vt 0.938367 0.767462
vt 0.943477 0.766663
vt 0.941054 0.769743
vt 0.946016 0.771490
vt 0.942849 0.773156
vt 0.942132 0.780832
vt 0.942703 0.777183
vt 0.940505 0.783926
vt 0.938070 0.785993
vt 0.935197 0.786719
vt 0.932325 0.785993
vt 0.929890 0.783926
vt 0.928263 0.780832
vt 0.927692 0.777183
vt 0.928263 0.773534
vt 0.929890 0.770440
vt 0.932325 0.768373
vt 0.935197 0.767647
vt 0.938070 0.768373
vt 0.940505 0.770440
vt 0.942132 0.773534
vt 0.942132 0.780832
vt 0.942703 0.777183
vt 0.940505 0.783926
vt 0.938070 0.785993
vt 0.928263 0.780832
vt 0.927692 0.777183
vt 0.928263 0.773534
vt 0.929890 0.770440
vt 0.932325 0.768373
vt 0.935197 0.767647
vt 0.938070 0.768373
vt 0.940505 0.770440
vt 0.942132 0.773534
vt 0.957723 0.331102
vt 0.958206 0.328733
vt 0.958898 0.328733
vt 0.958362 0.331360
vt 0.956348 0.333110
vt 0.956837 0.333587
vt 0.954290 0.334452
vt 0.954554 0.335075
vt 0.951862 0.334923
vt 0.951862 0.335598
vt 0.949434 0.334452
vt 0.949169 0.335075
vt 0.947376 0.333110
vt 0.946887 0.333587
vt 0.946000 0.331102
vt 0.945362 0.331360
vt 0.945517 0.328733
vt 0.944826 0.328733
vt 0.946000 0.326365
vt 0.945362 0.326107
vt 0.947376 0.324356
vt 0.946887 0.323880
vt 0.949434 0.323014
vt 0.949169 0.322392
vt 0.951862 0.322543
vt 0.951862 0.321869
vt 0.954290 0.323014
vt 0.954554 0.322392
vt 0.956348 0.324356
vt 0.956837 0.323880
vt 0.957723 0.326365
vt 0.958362 0.326107
vt 0.958362 0.331360
vt 0.956837 0.333587
vt 0.954554 0.335075
vt 0.951862 0.335598
vt 0.949169 0.335075
vt 0.946887 0.333587
vt 0.945362 0.331360
vt 0.949169 0.322392
vt 0.951862 0.321869
vt 0.954554 0.322392
vt 0.956837 0.323880
vt 0.958362 0.326107
vt 0.958897 0.328733
vt 0.935197 0.786719
vt 0.935197 0.777183
vt 0.929890 0.783926
vt 0.932325 0.785993
vt 0.969915 0.956173
vt 0.969292 0.958784
vt 0.970862 0.959325
vt 0.971614 0.956173
vt 0.967517 0.960996
vt 0.968719 0.961998
vt 0.964862 0.962475
vt 0.965513 0.963784
vt 0.961730 0.962994
vt 0.961730 0.964411
vt 0.958598 0.962475
vt 0.957947 0.963784
vt 0.955943 0.960996
vt 0.954741 0.961998
vt 0.954168 0.958784
vt 0.952598 0.959325
vt 0.953545 0.956173
vt 0.951846 0.956173
vt 0.954168 0.953563
vt 0.952598 0.953021
vt 0.955943 0.951350
vt 0.954741 0.950348
vt 0.958598 0.949871
vt 0.957947 0.948563
vt 0.961730 0.949352
vt 0.961730 0.947936
vt 0.964862 0.949871
vt 0.965513 0.948563
vt 0.967517 0.951350
vt 0.968719 0.950348
vt 0.969292 0.953563
vt 0.970862 0.953021
vt 0.946907 0.777183
vt 0.943479 0.777183
vt 0.942849 0.781210
vt 0.946016 0.782876
vt 0.941054 0.784623
vt 0.943477 0.787702
vt 0.938367 0.786904
vt 0.939678 0.790927
vt 0.935197 0.787705
vt 0.935197 0.792060
vt 0.932028 0.786904
vt 0.930716 0.790927
vt 0.929341 0.784623
vt 0.926917 0.787702
vt 0.927546 0.781210
vt 0.924379 0.782876
vt 0.926915 0.777183
vt 0.923488 0.777183
vt 0.927546 0.773156
vt 0.924379 0.771490
vt 0.929341 0.769743
vt 0.926917 0.766663
vt 0.932028 0.767462
vt 0.930716 0.763439
vt 0.935197 0.766661
vt 0.935197 0.762306
vt 0.938367 0.767462
vt 0.939678 0.763439
vt 0.941054 0.769743
vt 0.943477 0.766663
vt 0.942849 0.773156
vt 0.946016 0.771490
vt 0.942703 0.777183
vt 0.942132 0.780832
vt 0.940505 0.783926
vt 0.938070 0.785993
vt 0.935197 0.786719
vt 0.932325 0.785993
vt 0.929890 0.783926
vt 0.928263 0.780832
vt 0.927692 0.777183
vt 0.928263 0.773534
vt 0.929890 0.770440
vt 0.932325 0.768373
vt 0.935197 0.767647
vt 0.938070 0.768373
vt 0.940505 0.770440
vt 0.942132 0.773534
vt 0.942703 0.777183
vt 0.942132 0.780832
vt 0.940505 0.783926
vt 0.938070 0.785993
vt 0.928263 0.780832
vt 0.927692 0.777183
vt 0.928263 0.773534
vt 0.929890 0.770440
vt 0.932325 0.768373
vt 0.935197 0.767647
vt 0.938070 0.768373
vt 0.940505 0.770440
vt 0.942132 0.773534
vt 0.957723 0.331102
vt 0.958207 0.328733
vt 0.956348 0.333110
vt 0.954290 0.334452
vt 0.951862 0.334923
vt 0.949434 0.334452
vt 0.947376 0.333110
vt 0.946000 0.331102
vt 0.945517 0.328733
vt 0.944827 0.328733
vt 0.946000 0.326365
vt 0.945362 0.326107
vt 0.947376 0.324356
vt 0.946887 0.323880
vt 0.949434 0.323014
vt 0.951862 0.322543
vt 0.954290 0.323014
vt 0.956348 0.324356
vt 0.957724 0.326365
vn 0.9989 0.0449 -0.0102
vn 0.9951 0.0977 -0.0117
vn 0.9955 0.0943 0.0087
vn 0.9962 0.0833 0.0262
vn 0.9971 0.0665 0.0381
vn 0.9980 0.0463 0.0427
vn 0.9989 0.0260 0.0393
vn 0.9996 0.0085 0.0283
vn 0.9999 -0.0035 0.0114
vn 0.9999 -0.0081 -0.0088
vn 0.9996 -0.0046 -0.0291
vn 0.9989 0.0064 -0.0466
vn 0.9980 0.0232 -0.0586
vn 0.9971 0.0433 -0.0632
vn 0.9962 0.0637 -0.0597
vn 0.9955 0.0812 -0.0487
vn 0.9951 0.0931 -0.0319
vn 0.8535 0.5206 -0.0224
vn 0.8568 0.4892 0.1630
vn 0.8629 0.3893 0.3222
vn 0.8709 0.2361 0.4310
vn 0.8796 0.0529 0.4728
vn 0.8876 -0.1323 0.4412
vn 0.8937 -0.2914 0.3411
vn 0.8970 -0.4001 0.1878
vn 0.8970 -0.4419 0.0044
vn 0.8937 -0.4105 -0.1810
vn 0.8876 -0.3106 -0.3402
vn 0.8796 -0.1574 -0.4489
vn 0.8709 0.0258 -0.4907
vn 0.8629 0.2110 -0.4592
vn 0.8568 0.3701 -0.3591
vn 0.8535 0.4788 -0.2057
vn 0.0452 -0.9986 0.0278
vn 0.0383 -0.9334 -0.3569
vn 0.0256 -0.7261 -0.6872
vn 0.0090 -0.4082 -0.9128
vn -0.0090 -0.0282 -0.9996
vn -0.0256 0.3561 -0.9341
vn -0.0383 0.6862 -0.7264
vn -0.0452 0.9118 -0.4082
vn -0.0452 0.9986 -0.0278
vn -0.0383 0.9334 0.3568
vn -0.0256 0.7261 0.6872
vn -0.0090 0.4082 0.9128
vn 0.0090 0.0282 0.9996
vn 0.0256 -0.3561 0.9341
vn 0.0383 -0.6862 0.7264
vn 0.0452 -0.9118 0.4082
vn 0.8123 -0.5832 0.0092
vn 0.8080 -0.5428 -0.2290
vn 0.8002 -0.4144 -0.4336
vn 0.7899 -0.2176 -0.5734
vn 0.7787 0.0178 -0.6271
vn 0.7685 0.2558 -0.5865
vn 0.7606 0.4602 -0.4579
vn 0.7563 0.5999 -0.2608
vn 0.7563 0.6537 -0.0252
vn 0.7606 0.6133 0.2130
vn 0.7685 0.4849 0.4175
vn 0.7787 0.2881 0.5573
vn 0.7899 0.0527 0.6110
vn 0.8002 -0.1853 0.5705
vn 0.8080 -0.3897 0.4419
vn 0.8123 -0.5294 0.2448
vn -0.9989 -0.0449 0.0102
vn -0.9999 0.0081 0.0088
vn -0.9996 0.0046 0.0291
vn -0.9989 -0.0064 0.0466
vn -0.9980 -0.0232 0.0586
vn -0.9971 -0.0433 0.0632
vn -0.9962 -0.0637 0.0597
vn -0.9955 -0.0812 0.0487
vn -0.9951 -0.0931 0.0319
vn -0.9951 -0.0977 0.0117
vn -0.9955 -0.0943 -0.0087
vn -0.9962 -0.0833 -0.0262
vn -0.9971 -0.0665 -0.0381
vn -0.9980 -0.0463 -0.0427
vn -0.9989 -0.0260 -0.0393
vn -0.9996 -0.0085 -0.0283
vn -0.9999 0.0035 -0.0114
vn -0.8970 0.4419 -0.0044
vn -0.8937 0.4105 0.1810
vn -0.8876 0.3106 0.3402
vn -0.8796 0.1574 0.4489
vn -0.8709 -0.0258 0.4907
vn -0.8629 -0.2110 0.4592
vn -0.8568 -0.3701 0.3591
vn -0.8535 -0.4788 0.2057
vn -0.8535 -0.5206 0.0224
vn -0.8568 -0.4892 -0.1630
vn -0.8629 -0.3893 -0.3222
vn -0.8709 -0.2361 -0.4310
vn -0.8796 -0.0529 -0.4728
vn -0.8876 0.1323 -0.4412
vn -0.8937 0.2914 -0.3411
vn -0.8970 0.4001 -0.1878
vn -0.0383 0.9334 0.3569
vn -0.7563 -0.6537 0.0252
vn -0.7606 -0.6133 -0.2130
vn -0.7685 -0.4849 -0.4175
vn -0.7787 -0.2881 -0.5573
vn -0.7899 -0.0527 -0.6110
vn -0.8002 0.1853 -0.5705
vn -0.8080 0.3897 -0.4419
vn -0.8123 0.5294 -0.2448
vn -0.8123 0.5832 -0.0092
vn -0.8080 0.5428 0.2290
vn -0.8002 0.4144 0.4336
vn -0.7899 0.2175 0.5734
vn -0.7788 -0.0178 0.6271
vn -0.7685 -0.2558 0.5865
vn -0.7606 -0.4602 0.4579
vn -0.7563 -0.5999 0.2608
usemtl MAT_Base.001
s 1
f 53/1/1 54/2/1 55/3/1 97/4/1
f 67/5/2 2/6/2 1/7/2 66/8/2
f 69/9/3 3/10/3 2/6/3 67/5/3
f 71/11/4 4/12/4 3/10/4 69/9/4
f 73/13/5 5/14/5 4/12/5 71/11/5
f 75/15/6 6/16/6 5/14/6 73/13/6
f 77/17/7 7/18/7 6/16/7 75/15/7
f 79/19/8 8/20/8 7/18/8 77/17/8
f 81/21/9 9/22/9 8/20/9 79/19/9
f 83/23/10 10/24/10 9/22/10 81/21/10
f 85/25/11 11/26/11 10/24/11 83/23/11
f 87/27/12 12/28/12 11/26/12 85/25/12
f 89/29/13 13/30/13 12/28/13 87/27/13
f 91/31/14 14/32/14 13/30/14 89/29/14
f 93/33/15 15/34/15 14/32/15 91/31/15
f 95/35/16 16/36/16 15/34/16 93/33/16
f 66/8/17 1/7/17 16/36/17 95/35/17
f 1/37/18 2/38/18 18/39/18 17/40/18
f 2/38/19 3/41/19 19/42/19 18/39/19
f 3/41/20 4/43/20 20/44/20 19/42/20
f 4/43/21 5/45/21 21/46/21 20/44/21
f 5/45/22 6/47/22 22/48/22 21/46/22
f 6/47/23 7/49/23 23/50/23 22/48/23
f 7/49/24 8/51/24 24/52/24 23/50/24
f 8/51/25 9/53/25 25/54/25 24/52/25
f 9/53/26 10/55/26 26/56/26 25/54/26
f 10/55/27 11/57/27 27/58/27 26/56/27
f 11/57/28 12/59/28 28/60/28 27/58/28
f 12/59/29 13/61/29 29/62/29 28/60/29
f 13/61/30 14/63/30 30/64/30 29/62/30
f 14/63/31 15/65/31 31/66/31 30/64/31
f 15/65/32 16/67/32 32/68/32 31/66/32
f 16/67/33 1/37/33 17/40/33 32/68/33
f 17/40/1 18/39/1 34/69/1 33/70/1
f 18/39/1 19/42/1 35/71/1 34/69/1
f 19/42/1 20/44/1 36/72/1 35/71/1
f 20/44/1 21/46/1 37/73/1 36/72/1
f 21/46/1 22/48/1 38/74/1 37/73/1
f 22/48/1 23/50/1 39/75/1 38/74/1
f 23/50/1 24/52/1 40/76/1 39/75/1
f 24/52/1 25/54/1 41/77/1 40/76/1
f 25/54/1 26/56/1 42/78/1 41/77/1
f 26/56/1 27/58/1 43/79/1 42/78/1
f 27/58/1 28/60/1 44/80/1 43/79/1
f 28/60/1 29/62/1 45/81/1 44/80/1
f 29/62/1 30/64/1 46/82/1 45/81/1
f 30/64/1 31/66/1 47/83/1 46/82/1
f 31/66/1 32/68/1 48/84/1 47/83/1
f 32/68/1 17/40/1 33/70/1 48/84/1
f 33/70/34 34/69/34 50/85/34 49/86/34
f 34/69/35 35/71/35 51/87/35 50/85/35
f 35/71/36 36/72/36 52/88/36 51/87/36
f 36/72/37 37/73/37 53/1/37 52/88/37
f 37/73/38 38/74/38 54/2/38 53/1/38
f 38/74/39 39/75/39 55/3/39 54/2/39
f 39/75/40 40/76/40 56/89/40 55/3/40
f 40/76/41 41/77/41 57/90/41 56/89/41
f 41/77/42 42/78/42 58/91/42 57/90/42
f 42/78/43 43/79/43 59/92/43 58/91/43
f 43/79/44 44/80/44 60/93/44 59/92/44
f 44/80/45 45/81/45 61/94/45 60/93/45
f 45/81/46 46/82/46 62/95/46 61/94/46
f 46/82/47 47/83/47 63/96/47 62/95/47
f 47/83/48 48/84/48 64/97/48 63/96/48
f 48/84/49 33/70/49 49/86/49 64/97/49
f 67/98/50 66/99/50 65/100/50 68/101/50
f 69/102/51 67/98/51 68/101/51 70/103/51
f 71/104/52 69/102/52 70/103/52 72/105/52
f 73/106/53 71/104/53 72/105/53 74/107/53
f 75/108/54 73/106/54 74/107/54 76/109/54
f 77/110/55 75/108/55 76/109/55 78/111/55
f 79/112/56 77/110/56 78/111/56 80/113/56
f 81/114/57 79/112/57 80/113/57 82/115/57
f 83/116/58 81/114/58 82/115/58 84/117/58
f 85/118/59 83/116/59 84/117/59 86/119/59
f 87/120/60 85/118/60 86/119/60 88/121/60
f 89/122/61 87/120/61 88/121/61 90/123/61
f 91/124/62 89/122/62 90/123/62 92/125/62
f 93/126/63 91/124/63 92/125/63 94/127/63
f 95/128/64 93/126/64 94/127/64 96/129/64
f 66/99/65 95/128/65 96/129/65 65/100/65
f 57/90/1 58/91/1 59/92/1 97/4/1
f 63/96/1 64/97/1 49/86/1 97/4/1
f 51/87/1 52/88/1 53/1/1 97/4/1
f 55/3/1 56/89/1 57/90/1 97/4/1
f 61/94/1 62/95/1 63/96/1 97/4/1
f 59/92/1 60/93/1 61/94/1 97/4/1
f 49/86/1 50/85/1 51/87/1 97/4/1
f 68/101/35 180/130/35 181/131/35 70/103/35
f 72/105/36 70/103/36 181/131/36 182/132/36
f 74/107/37 72/105/37 182/132/37 183/133/37
f 78/111/39 76/109/39 184/134/39 185/135/39
f 80/113/40 78/111/40 185/135/40 186/136/40
f 88/121/45 190/137/45 191/138/45 90/123/45
f 92/125/46 90/123/46 191/138/46 192/139/46
f 94/127/47 92/125/47 192/139/47 193/140/47
f 96/129/49 194/141/49 179/142/49 65/100/49
f 98/143/66 101/144/66 100/145/66 99/146/66
f 105/147/67 104/148/67 103/149/67 102/150/67
f 104/148/68 107/151/68 106/152/68 103/149/68
f 107/151/69 109/153/69 108/154/69 106/152/69
f 109/153/70 111/155/70 110/156/70 108/154/70
f 111/155/71 113/157/71 112/158/71 110/156/71
f 113/157/72 115/159/72 114/160/72 112/158/72
f 115/159/73 117/161/73 116/162/73 114/160/73
f 117/161/74 119/163/74 118/164/74 116/162/74
f 119/163/75 121/165/75 120/166/75 118/164/75
f 121/165/76 123/167/76 122/168/76 120/166/76
f 123/167/77 125/169/77 124/170/77 122/168/77
f 125/169/78 127/171/78 126/172/78 124/170/78
f 127/171/79 129/173/79 128/174/79 126/172/79
f 129/173/80 131/175/80 130/176/80 128/174/80
f 131/175/81 133/177/81 132/178/81 130/176/81
f 133/177/82 105/147/82 102/150/82 132/178/82
f 105/179/83 135/180/83 134/181/83 104/182/83
f 104/182/84 134/181/84 136/183/84 107/184/84
f 107/184/85 136/183/85 137/185/85 109/186/85
f 109/186/86 137/185/86 138/187/86 111/188/86
f 111/188/87 138/187/87 139/189/87 113/190/87
f 113/190/88 139/189/88 140/191/88 115/192/88
f 115/192/89 140/191/89 141/193/89 117/194/89
f 117/194/90 141/193/90 142/195/90 119/196/90
f 119/196/91 142/195/91 143/197/91 121/198/91
f 121/198/92 143/197/92 144/199/92 123/200/92
f 123/200/93 144/199/93 145/201/93 125/202/93
f 125/202/94 145/201/94 146/203/94 127/204/94
f 127/204/95 146/203/95 147/205/95 129/206/95
f 129/206/96 147/205/96 148/207/96 131/208/96
f 131/208/97 148/207/97 149/209/97 133/210/97
f 133/210/98 149/209/98 135/180/98 105/179/98
f 135/180/66 151/211/66 150/212/66 134/181/66
f 134/181/66 150/212/66 152/213/66 136/183/66
f 136/183/66 152/213/66 153/214/66 137/185/66
f 137/185/66 153/214/66 154/215/66 138/187/66
f 138/187/66 154/215/66 155/216/66 139/189/66
f 139/189/66 155/216/66 156/217/66 140/191/66
f 140/191/66 156/217/66 157/218/66 141/193/66
f 141/193/66 157/218/66 158/219/66 142/195/66
f 142/195/66 158/219/66 159/220/66 143/197/66
f 143/197/66 159/220/66 160/221/66 144/199/66
f 144/199/66 160/221/66 161/222/66 145/201/66
f 145/201/66 161/222/66 162/223/66 146/203/66
f 146/203/66 162/223/66 163/224/66 147/205/66
f 147/205/66 163/224/66 164/225/66 148/207/66
f 148/207/66 164/225/66 165/226/66 149/209/66
f 149/209/66 165/226/66 151/211/66 135/180/66
f 151/211/34 167/227/34 166/228/34 150/212/34
f 150/212/35 166/228/35 168/229/35 152/213/35
f 152/213/36 168/229/36 169/230/36 153/214/36
f 153/214/37 169/230/37 98/143/37 154/215/37
f 154/215/38 98/143/38 99/146/38 155/216/38
f 155/216/39 99/146/39 100/145/39 156/217/39
f 156/217/40 100/145/40 170/231/40 157/218/40
f 157/218/41 170/231/41 171/232/41 158/219/41
f 158/219/42 171/232/42 172/233/42 159/220/42
f 159/220/99 172/233/99 173/234/99 160/221/99
f 160/221/44 173/234/44 174/235/44 161/222/44
f 161/222/45 174/235/45 175/236/45 162/223/45
f 162/223/46 175/236/46 176/237/46 163/224/46
f 163/224/47 176/237/47 177/238/47 164/225/47
f 164/225/48 177/238/48 178/239/48 165/226/48
f 165/226/49 178/239/49 167/227/49 151/211/49
f 103/240/100 180/130/100 179/142/100 102/241/100
f 106/242/101 181/131/101 180/130/101 103/240/101
f 108/243/102 182/132/102 181/131/102 106/242/102
f 110/244/103 183/133/103 182/132/103 108/243/103
f 112/245/104 184/134/104 183/133/104 110/244/104
f 114/246/105 185/135/105 184/134/105 112/245/105
f 116/247/106 186/136/106 185/135/106 114/246/106
f 118/248/107 187/249/107 186/136/107 116/247/107
f 120/250/108 188/251/108 187/249/108 118/248/108
f 122/252/109 189/253/109 188/251/109 120/250/109
f 124/254/110 190/137/110 189/253/110 122/252/110
f 126/255/111 191/138/111 190/137/111 124/254/111
f 128/256/112 192/139/112 191/138/112 126/255/112
f 130/257/113 193/140/113 192/139/113 128/256/113
f 132/258/114 194/141/114 193/140/114 130/257/114
f 102/241/115 179/142/115 194/141/115 132/258/115
f 171/232/66 101/144/66 173/234/66 172/233/66
f 177/238/66 101/144/66 167/227/66 178/239/66
f 98/143/66 169/230/66 168/229/66 101/144/66
f 100/145/66 101/144/66 171/232/66 170/231/66
f 177/238/66 176/237/66 175/236/66 101/144/66
f 173/234/66 101/144/66 175/236/66 174/235/66
f 168/229/66 166/228/66 167/227/66 101/144/66
f 68/101/34 65/100/34 179/142/34 180/130/34
f 74/107/38 183/133/38 184/134/38 76/109/38
f 80/113/41 186/136/41 187/249/41 82/115/41
f 82/115/42 187/249/42 188/251/42 84/117/42
f 84/117/99 188/251/99 189/253/99 86/119/99
f 88/121/44 86/119/44 189/253/44 190/137/44
f 96/129/48 94/127/48 193/140/48 194/141/48
